<svg xmlns="http://www.w3.org/2000/svg"><defs><symbol id="maps-and-layers" viewBox="0 0 54 54"><path d="M3 3v48h48V3H3zm1 47V3.95L40.846 4c-2.127 1.046-4.365 2.465-4.365 4.397 0 .747.302 1.282.521 1.673.168.296.254.459.254.65 0 .234-.158.406-.665.84-.451.385-1.013.865-1.268 1.622-.087.26-.13.53-.13.805 0 .26.052.584.118.925.046.25.135.715.181.751-.002.002-.123.07-.56.035-.902-.034-1.746.777-1.974 1.033-.316.359-.824 1.075-.635 2.037.373 1.821.37 2.92-.713 3.506-1.005.544-1.52 1.458-1.934 2.193-.507.898-.688 1.125-1.097 1.125-.208 0-.378-.113-.745-.391-.454-.344-1.076-.815-2.007-.815-1.383 0-2.509 1.202-2.509 2.68 0 .742-.7 2.224-1.622 2.224-.77 0-1.009-.238-1.178-.543-.54-.969-1.28-2.296-2.952-2.296-1.667 0-3.024 1.434-3.024 3.198 0 .553.114.988.206 1.337.076.295.137.528.137.813 0 .362-.14.637-.388 1.092-.285.526-.642 1.181-.642 2.094 0 1.26 1.102 2.247 2.508 2.247.753 0 1.251-.194 1.65-.35.347-.136.536-.21.865-.188.096.073.224.433.224.698 0 .45-.38.862-1.005 1.486-.929.927-2.332 2.326-1.207 4.573.45.898 1.479 1.139 2.474 1.372.404.094 1.348.314 1.458.57 0 .47.115.86.207 1.176l.104.35c-.048.137-.26.4-.43.611-.431.537-1.021 1.271-1.021 2.251 0 .074.01.143.024.219H4zm46 0H30.522c.137-.352.301-.723.478-1.096.394-.83.705-1.484.705-2.177v-.731l-.688-.251a2.127 2.127 0 0 1-.065-.025c.046-.149.08-.324.08-.518 0-.244.155-.384.868-.785.768-.431 1.93-1.085 1.93-2.603 0-.631-.318-1.041-.578-1.29 0-.205.104-.338.49-.726.437-.438 1.099-1.102 1.099-2.199v-.958c0-.235.07-.419.19-.506.147-.107.361-.054.474-.017l.248.093c.347.133.779.3 1.317.3 1.3 0 1.978-.967 2.427-1.605.372-.529.536-.716.726-.727.074.056.214.326.307.505.207.399.465.896.93 1.304 1.105.973 2.328 1.488 3.534 1.488.574 0 1.062-.242 1.453-.436.173-.085.432-.213.524-.217.343 0 .77-.14 1.7-.454.444-.15.925-.312 1.329-.425V50zm0-14.98l-.22.061c-.422.116-.927.286-1.393.444l-.434.148c-.34.117-.611.205-.716.228-.088.02-.177.03-.266.03-.293 0-.611.158-.92.31-.438.22-.701.329-1 .343h-.004c-1.303 0-2.344-.688-2.998-1.265-.337-.294-.542-.686-.722-1.032-.364-.702-.596-.988-1.112-.988-.627 0-.994.452-1.445 1.093-.348.493-.87 1.234-1.769 1.234-.349 0-.613-.113-.806-.196l-.124-.052-.308-.113a1.642 1.642 0 0 0-.51-.082c-.275 0-.532.08-.741.23-.357.254-.562.702-.562 1.228v.959c0 .73-.427 1.157-.84 1.57-.438.44-.748.793-.748 1.354 0 .134.035.258.21.426a1.2 1.2 0 0 1 .367.864c0 .996-.784 1.437-1.476 1.827-.808.454-1.34.81-1.358 1.596-.004.17-.044.336-.117.49-.099.206-.118.288-.087.365.01.024.04.098.2.204a1.2 1.2 0 0 1 .439 1.475c-.103.24-.232.513-.335.731-.223.468-.47 1.008-.631 1.498h-8.97a1.018 1.018 0 0 1-.031-.218c0-.665.435-1.207.82-1.686.251-.313.483-.602.58-.883.088-.253.022-.518-.088-.895-.087-.297-.172-.588-.172-.924 0-.709-.521-1.059-2.144-1.439-.983-.23-1.148-.277-1.302-.347a1.2 1.2 0 0 1-.58-.556c-.837-1.67.117-2.623 1.04-3.543.764-.764 1.266-1.323 1.266-2.117 0-.592-.31-1.5-.978-1.568a2.727 2.727 0 0 0-.276-.014c-.428 0-.716.111-1.05.241-.345.136-.739.29-1.326.29-.65 0-1.25-.331-1.493-.825a1.2 1.2 0 0 1-.124-.531c0-.687.272-1.186.534-1.669.255-.469.496-.91.496-1.517 0-.4-.085-.723-.167-1.037-.087-.331-.176-.673-.176-1.113 0-1.272.957-2.308 2.133-2.308 1.15 0 1.66.916 2.2 1.886.227.41.673.954 1.93.954 1.458 0 2.513-1.861 2.513-3.116 0-.969.741-1.788 1.618-1.788.63 0 1.056.323 1.468.634.389.295.755.572 1.285.572.916 0 1.318-.596 1.87-1.577.378-.67.804-1.426 1.583-1.847 1.553-.841 1.594-2.343 1.158-4.494a1.2 1.2 0 0 1 .13-.826c.114-.203.27-.393.434-.585l.007.004a1.202 1.202 0 0 1 1.113-.571c.096.007.188.01.277.01.687 0 .884-.22.958-.302.282-.316.201-.888.077-1.547a3.432 3.432 0 0 1-.08-.99c.008-.1.029-.2.061-.296.176-.52.595-.877.999-1.223.611-.522.98-.884.98-1.52 0-.434-.187-.765-.367-1.086-.2-.355-.409-.723-.409-1.236 0-1.213 1.377-2.429 4.333-3.826.219-.105.468-.322.688-.571H50v31.02z"/></symbol><symbol id="offline" viewBox="0 0 54 54"><path d="M26 31v1H14v-1h12zm9 0v1h19v-1H35zm-4.5 1.207l5.655 5.656.708-.707-5.656-5.656 5.657-5.657-.707-.707-5.657 5.657-5.657-5.657-.707.707 5.657 5.657-5.657 5.657.707.707 5.657-5.657zM49.324 33a9.98 9.98 0 0 1-.239 1.328l-.062.22-.02.025-.057.165C47.446 39.11 43.308 42 38.65 42H11.105C3.691 42 .942 36.396.942 32.597c0-5.272 3.3-7.34 6.123-8.552l.575-.247.03-.624c.068-1.43.753-3.645 2.458-5.183.896-.806 2.487-1.768 4.974-1.768.494 0 1.013.038 1.543.113l.656.093.341-.57c1.898-3.164 5.53-4.907 10.23-4.907 6.173 0 10.88 3.66 11.711 9.109l.11.717.715.118c4.337.722 7.894 4.032 8.853 8.237.045.292.078.581.104.867h1.002c-.03-.354-.069-.714-.128-1.082h-.002c-1.049-4.61-4.969-8.227-9.665-9.008-.9-5.899-6.022-9.958-12.701-9.958-5.088 0-8.997 1.91-11.086 5.394-3.705-.523-6.02.726-7.326 1.902-1.972 1.778-2.712 4.27-2.788 5.878C3.452 24.508 0 26.893 0 32.596 0 36.799 2.957 43 11.105 43h27.544c5.077 0 9.621-3.212 11.243-7.938.004-.005.012-.01.014-.015.042-.1.088-.248.135-.42l.014-.042h-.004c.103-.388.208-.932.28-1.585h-1.007z"/></symbol><symbol id="manage-data" viewBox="0 0 54 54"><path d="M42.431 21.429l-.747.43L51 16.5 26.5 2C26.488 2 2 16.5 2 16.5s3.88 2.242 8.551 4.937L2 26.5s3.88 2.242 8.551 4.937L2 36.5s24.438 14.12 24.5 14.092L51 36.5l-8.569-5.071L51 26.499l-8.569-5.07zm-38.45-4.94A39891.76 39891.76 0 0 1 26.498 3.161l22.517 13.327-22.528 12.958c-2.626-1.481-15.77-9.066-22.508-12.957zm45.035 19.999L26.488 49.446c-2.626-1.481-15.77-9.066-22.508-12.957l7.565-4.479c6.864 3.96 14.92 8.598 14.955 8.582l15.225-8.757-.29.166 7.58 4.487zm-22.528 2.958c-2.626-1.481-15.77-9.066-22.508-12.957l7.565-4.479c6.864 3.96 14.92 8.599 14.955 8.582l14.935-8.59 7.58 4.486-22.527 12.958z"/></symbol><symbol id="spatial-analysis" viewBox="0 0 54 54"><path d="M41 31H14L4 51h47L41 31zm-13 6h6.5l1.25 5H28v-5zm7.5 0h7.382l2.5 5H36.75l-1.25-5zm4.882-5l2 4H35.25l-1-4h6.132zm-7.132 0l1 4H28v-4h5.25zM27 32v4h-6.25l1-4H27zm-6.5 5H27v5h-7.75l1.25-5zm-2.25 5H9.618l2.5-5H19.5l-1.25 5zm-3.632-10h6.132l-1 4h-7.132l2-4zm-9 18l3.5-7H18l-1.75 7H5.618zm11.632 0L19 43h8v7h-9.75zM28 50v-7h8l1.75 7H28zm10.75 0L37 43h8.882l3.5 7H38.75zM10.5 22c1.93 0 3.5-1.57 3.5-3.5 0-.669-.198-1.288-.525-1.82l7.69-6.592c.62.56 1.435.912 2.335.912a3.47 3.47 0 0 0 1.376-.284l7.402 11.103A3.479 3.479 0 0 0 31 24.5c0 1.93 1.57 3.5 3.5 3.5s3.5-1.57 3.5-3.5c0-.785-.269-1.502-.707-2.086l5.12-5.12A3.467 3.467 0 0 0 44.5 18c1.93 0 3.5-1.57 3.5-3.5S46.43 11 44.5 11 41 12.57 41 14.5c0 .785.269 1.502.707 2.086l-5.12 5.12A3.467 3.467 0 0 0 34.5 21a3.47 3.47 0 0 0-1.376.284L25.722 10.18A3.479 3.479 0 0 0 27 7.5C27 5.57 25.43 4 23.5 4S20 5.57 20 7.5c0 .669.198 1.288.525 1.82l-7.69 6.592A3.474 3.474 0 0 0 10.5 15C8.57 15 7 16.57 7 18.5S8.57 22 10.5 22zm34-10a2.5 2.5 0 1 1 0 5 2.5 2.5 0 0 1 0-5zm-10 10a2.5 2.5 0 1 1 0 5 2.5 2.5 0 0 1 0-5zm-11-17a2.5 2.5 0 1 1 0 5 2.5 2.5 0 0 1 0-5zm-13 11a2.5 2.5 0 1 1 0 5 2.5 2.5 0 0 1 0-5z"/></symbol><symbol id="demographics" viewBox="0 0 54 54"><path d="M31 8.5a4.5 4.5 0 1 0-9.001-.001A4.5 4.5 0 0 0 31 8.5zm-4.5 3.7c-2.04 0-3.7-1.66-3.7-3.7s1.66-3.7 3.7-3.7 3.7 1.66 3.7 3.7-1.66 3.7-3.7 3.7zM34 24.5V16a3 3 0 0 0-3-3h-9a3 3 0 0 0-3 3v8.5a1.5 1.5 0 0 0 1.5 1.5H22v2.5c0 .829.67 1.5 1.5 1.5h6a1.5 1.5 0 0 0 1.5-1.5V26h1.5a1.5 1.5 0 0 0 1.5-1.5zm-1 0a.5.5 0 0 1-.5.5H31v-8h-1v11.5a.5.5 0 0 1-.5.5h-6a.5.5 0 0 1-.5-.5V17h-1v8h-1.5a.5.5 0 0 1-.5-.5V16c0-1.103.897-2 2-2h9c1.103 0 2 .897 2 2v8.5zm-16 4a4.5 4.5 0 1 0-9.001-.001A4.5 4.5 0 0 0 17 28.5zm-4.5 3.7c-2.04 0-3.7-1.66-3.7-3.7s1.66-3.7 3.7-3.7 3.7 1.66 3.7 3.7-1.66 3.7-3.7 3.7zm4.5.8H8a3 3 0 0 0-3 3v8.5A1.5 1.5 0 0 0 6.5 46H8v2.5c0 .829.67 1.5 1.5 1.5h6a1.5 1.5 0 0 0 1.5-1.5V46h1.5a1.5 1.5 0 0 0 1.5-1.5V36a3 3 0 0 0-3-3zm2 11.5a.5.5 0 0 1-.5.5H17v-8h-1v11.5a.5.5 0 0 1-.5.5h-6a.5.5 0 0 1-.5-.5V37H8v8H6.5a.5.5 0 0 1-.5-.5V36c0-1.103.897-2 2-2h9c1.103 0 2 .897 2 2v8.5zm26-16a4.5 4.5 0 1 0-9.001-.001A4.5 4.5 0 0 0 45 28.5zm-4.5 3.7c-2.04 0-3.7-1.66-3.7-3.7s1.66-3.7 3.7-3.7 3.7 1.66 3.7 3.7-1.66 3.7-3.7 3.7zm4.5.8h-9a3 3 0 0 0-3 3v8.5a1.5 1.5 0 0 0 1.5 1.5H36v2.5c0 .829.67 1.5 1.5 1.5h6a1.5 1.5 0 0 0 1.5-1.5V46h1.5a1.5 1.5 0 0 0 1.5-1.5V36a3 3 0 0 0-3-3zm2 11.5a.5.5 0 0 1-.5.5H45v-8h-1v11.5a.5.5 0 0 1-.5.5h-6a.5.5 0 0 1-.5-.5V37h-1v8h-1.5a.5.5 0 0 1-.5-.5V36c0-1.103.897-2 2-2h9c1.103 0 2 .897 2 2v8.5z"/></symbol><symbol id="styling-and-visualization" viewBox="0 0 54 54"><path d="M52 12v36H8v-5h1v4h42V13h-4v-1h5zm-6 30H2V6h44v36zM45 7H3v34h42V7zm-1 27H4v1h40v-1zm0 3H4v1h40v-1zm0-5H4v-5l2.593-2.604c.608-.588 1.689-.398 2.314.196.258.249.688.56.933.324l9.384-8.53c.61-.523 1.61-.516 2.22.032 1.842 1.641 6.089 5.87 7.912 7.42.26.225.673.213.92-.02l4.366-4.36c.313-.295.924-.458 1.358-.458.501.015.732.207 1.043.54L44 27v5zm-.75-4.705l-6.756-7.243c-.254-.273-.311-.296-.494-.302-.323 0-.719.136-.827.239l-4.383 4.375a1.43 1.43 0 0 1-.986.386 1.43 1.43 0 0 1-.934-.341c-1.033-.878-2.799-2.57-4.506-4.207-1.344-1.29-2.614-2.507-3.422-3.227a.95.95 0 0 0-.63-.225.922.922 0 0 0-.583.19l-9.37 8.518a1.053 1.053 0 0 1-.732.292c-.397 0-.815-.208-1.237-.614a1.302 1.302 0 0 0-.848-.347c-.126 0-.302.025-.417.137L4.75 27.31V31h38.5v-3.705zM28 13a4 4 0 1 1 8 0 4 4 0 0 1-8 0zm.75 0c0 1.792 1.458 3.25 3.25 3.25s3.25-1.458 3.25-3.25S33.792 9.75 32 9.75s-3.25 1.458-3.25 3.25z"/></symbol><symbol id="geocoding" viewBox="0 0 48 48"><path d="M18.16 36.763l.677.673c-2.404.486-3.937 1.301-3.937 2.06 0 1.103 3.35 2.704 8.6 2.704s8.6-1.6 8.6-2.703c0-.76-1.533-1.575-3.937-2.06l.677-.674c2.344.54 4.06 1.461 4.06 2.734 0 1.931-4.216 3.503-9.4 3.503s-9.4-1.572-9.4-3.503c0-1.273 1.716-2.194 4.06-2.734zm14.57-3.873l-.71.707c6.49 1.102 11.08 3.394 11.08 5.979 0 3.597-8.792 6.524-19.6 6.524S3.9 43.173 3.9 39.576c0-2.585 4.59-4.877 11.08-5.979l-.71-.707C7.595 34.106 3.1 36.61 3.1 39.576c0 4.175 8.77 7.324 20.4 7.324s20.4-3.149 20.4-7.324c0-2.966-4.495-5.47-11.17-6.686zm-9.224-13.979c-2.426 0-4.4-1.974-4.4-4.4s1.974-4.4 4.4-4.4 4.4 1.974 4.4 4.4-1.974 4.4-4.4 4.4zm0-8c-1.985 0-3.6 1.615-3.6 3.6s1.615 3.6 3.6 3.6 3.6-1.615 3.6-3.6-1.615-3.6-3.6-3.6zM23.5 39.114l-9.4-9.356v-19.73c0-4.565 3.25-6.978 9.4-6.978s9.4 2.413 9.4 6.977v19.731l-9.4 9.356zm-8.6-9.688l8.6 8.56 8.6-8.56V10.027c0-5.105-4.677-6.177-8.6-6.177s-8.6 1.072-8.6 6.177v19.4z"/></symbol><symbol id="routing" viewBox="0 0 54 54"><path d="M8.5 12C6.57 12 5 13.57 5 15.5S6.57 19 8.5 19s3.5-1.57 3.5-3.5S10.43 12 8.5 12zm0 6C7.122 18 6 16.878 6 15.5S7.122 13 8.5 13s2.5 1.122 2.5 2.5S9.878 18 8.5 18zm36 8c-1.93 0-3.5 1.57-3.5 3.5s1.57 3.5 3.5 3.5 3.5-1.57 3.5-3.5-1.57-3.5-3.5-3.5zm0 6c-1.378 0-2.5-1.122-2.5-2.5s1.122-2.5 2.5-2.5 2.5 1.122 2.5 2.5-1.122 2.5-2.5 2.5zm6.5-5.8c0-2.867-2.563-5.2-5.714-5.2h-1.572C40.564 21 38 23.333 38 26.2V32H27V18H15v-5.8C15 9.333 12.437 7 9.286 7H7.714C4.564 7 2 9.333 2 12.2v12.19l6.065 6.615c-2.728.025-4.865.236-4.865.495 0 .276 2.418.5 5.4.5s5.4-.224 5.4-.5c0-.266-2.24-.48-5.063-.497L15 24.39V19h11v14h12v5.39l6.065 6.615c-2.728.025-4.865.236-4.865.495 0 .276 2.418.5 5.4.5s5.4-.224 5.4-.5c0-.266-2.24-.48-5.063-.497L51 38.39V26.2zM14 24l-5.5 6L3 24V12.2C3 9.884 5.115 8 7.714 8h1.572C11.886 8 14 9.884 14 12.2V24zm36 14l-5.5 6-5.5-6V26.2c0-2.316 2.115-4.2 4.714-4.2h1.572c2.6 0 4.714 1.884 4.714 4.2V38z"/></symbol><symbol id="query-and-edit" viewBox="0 0 54 54"><path d="M60.217 54.937l-15.77-15.77-1.414 1.415-3.801-3.8a19.94 19.94 0 1 0-2.451 2.45l3.802 3.802-1.413 1.415 15.767 15.767a1.739 1.739 0 0 0 2.459 0l2.82-2.821a1.742 1.742 0 0 0 0-2.458zM4.9 24A19.1 19.1 0 1 1 24 43.1 19.121 19.121 0 0 1 4.9 24zm32.474 14.693q.69-.63 1.32-1.32l3.774 3.775-1.32 1.32zM59.65 56.83l-2.82 2.82a.97.97 0 0 1-1.327 0L40.3 44.45l4.145-4.15L59.65 55.501a.939.939 0 0 1 0 1.328zM22.343 9.62l.097.795q-.31.038-.619.086a13.635 13.635 0 0 0-11.353 11.775l-.026.217-.795-.084.026-.228a14.44 14.44 0 0 1 12.022-12.47c.215-.034.431-.064.648-.09z"/></symbol><symbol id="routing" viewBox="0 0 54 54"><path d="M8.5 12C6.57 12 5 13.57 5 15.5S6.57 19 8.5 19s3.5-1.57 3.5-3.5S10.43 12 8.5 12zm0 6C7.122 18 6 16.878 6 15.5S7.122 13 8.5 13s2.5 1.122 2.5 2.5S9.878 18 8.5 18zm36 8c-1.93 0-3.5 1.57-3.5 3.5s1.57 3.5 3.5 3.5 3.5-1.57 3.5-3.5-1.57-3.5-3.5-3.5zm0 6c-1.378 0-2.5-1.122-2.5-2.5s1.122-2.5 2.5-2.5 2.5 1.122 2.5 2.5-1.122 2.5-2.5 2.5zm6.5-5.8c0-2.867-2.563-5.2-5.714-5.2h-1.572C40.564 21 38 23.333 38 26.2V32H27V18H15v-5.8C15 9.333 12.437 7 9.286 7H7.714C4.564 7 2 9.333 2 12.2v12.19l6.065 6.615c-2.728.025-4.865.236-4.865.495 0 .276 2.418.5 5.4.5s5.4-.224 5.4-.5c0-.266-2.24-.48-5.063-.497L15 24.39V19h11v14h12v5.39l6.065 6.615c-2.728.025-4.865.236-4.865.495 0 .276 2.418.5 5.4.5s5.4-.224 5.4-.5c0-.266-2.24-.48-5.063-.497L51 38.39V26.2zM14 24l-5.5 6L3 24V12.2C3 9.884 5.115 8 7.714 8h1.572C11.886 8 14 9.884 14 12.2V24zm36 14l-5.5 6-5.5-6V26.2c0-2.316 2.115-4.2 4.714-4.2h1.572c2.6 0 4.714 1.884 4.714 4.2V38z"/></symbol><symbol id="query-and-edit" viewBox="0 0 54 54"><path d="M60.217 54.937l-15.77-15.77-1.414 1.415-3.801-3.8a19.94 19.94 0 1 0-2.451 2.45l3.802 3.802-1.413 1.415 15.767 15.767a1.739 1.739 0 0 0 2.459 0l2.82-2.821a1.742 1.742 0 0 0 0-2.458zM4.9 24A19.1 19.1 0 1 1 24 43.1 19.121 19.121 0 0 1 4.9 24zm32.474 14.693q.69-.63 1.32-1.32l3.774 3.775-1.32 1.32zM59.65 56.83l-2.82 2.82a.97.97 0 0 1-1.327 0L40.3 44.45l4.145-4.15L59.65 55.501a.939.939 0 0 1 0 1.328zM22.343 9.62l.097.795q-.31.038-.619.086a13.635 13.635 0 0 0-11.353 11.775l-.026.217-.795-.084.026-.228a14.44 14.44 0 0 1 12.022-12.47c.215-.034.431-.064.648-.09z"/></symbol><symbol id="pro" viewBox="0 0 64 64"><path d="M60.75 29a28.87 28.87 0 1 0 .16 3 29.29 29.29 0 0 0-.16-3zM41.19 5.45a28.17 28.17 0 0 1 18.66 22.87 12.1 12.1 0 0 0-7.11-1.92h-.57l.2.54s1.51 4.16.12 6.37a13.7 13.7 0 0 1-1.68 2.06c-1.2 1.31-2.34 2.54-2.29 4.61.06 2.52-3.79 6.68-5.44 8.45l-.35.39c-1.25 1.36-2.4 2-3.17 1.84-.55-.14-1-.75-1.24-1.83a15.06 15.06 0 0 1 .48-9.5 2.61 2.61 0 0 0 0-2.53c-.65-1-2.19-1.49-4.82-1.55-3.07-.06-4.69-.32-5.17-5.22-.18-1.79 1-3.48 2-4.59 2-2.23 4.75-3.61 6.12-3.61.25 0 .6 0 1 .05 2.2.15 5.88.41 6.13-2.16s-1.28-4-2.62-5.2a6.45 6.45 0 0 1-2-2.32c-.22-.56.64-3.25 1.16-4.85.22-.7.4-1.35.59-1.9zm-29.25 6.9c1.3 2.09 2 3.56 1.48 5.06a3.89 3.89 0 0 1-2.24 2.69 13 13 0 0 0-2.38 1.61c-1 .89-.91 2.2-.81 3.35s.2 2.3-.87 2.9l-.21.13A22.18 22.18 0 0 0 4 29.93a28 28 0 0 1 7.94-17.58zM4.15 35.69a27.51 27.51 0 0 0 5.33 2.53c.92.35 1.79.69 2.39 1a5.57 5.57 0 0 1 3 3 2.69 2.69 0 0 1-.36 2.21 22.4 22.4 0 0 0-2.76 7.05 28 28 0 0 1-7.6-15.79zM32 60.1a28 28 0 0 1-19.52-7.92 20.8 20.8 0 0 1 2.75-7.33 3.5 3.5 0 0 0 .44-2.85 6.37 6.37 0 0 0-3.45-3.52c-.63-.31-1.47-.64-2.45-1A21.49 21.49 0 0 1 4 34.58c0-.85-.1-1.71-.1-2.58v-.94a16.93 16.93 0 0 1 3.4-2.28l.21-.12C9 27.81 8.9 26.31 8.79 25c-.09-1.1-.18-2 .54-2.67a12.1 12.1 0 0 1 2.23-1.52 4.62 4.62 0 0 0 2.61-3.12c.7-2-.39-3.9-1.65-5.91a28.08 28.08 0 0 1 27.91-6.59c-.15.54-.36 1.2-.59 1.92-.89 2.75-1.45 4.61-1.15 5.38a7.19 7.19 0 0 0 2.17 2.63c1.32 1.16 2.56 2.25 2.35 4.52-.16 1.66-2.8 1.61-5.27 1.44h-1.06c-1.8 0-4.74 1.7-6.71 3.88-1.11 1.17-2.39 3.04-2.17 5.15.54 5.44 2.61 5.87 5.95 5.94 2.28.05 3.69.45 4.17 1.19a1.88 1.88 0 0 1 0 1.79 15.84 15.84 0 0 0-.52 10c.35 1.38 1 2.19 1.83 2.41a1.84 1.84 0 0 0 .47.06c1.24 0 2.55-1.13 3.48-2.14l.35-.38c1.86-2 5.72-6.18 5.65-9 0-1.75.94-2.81 2.08-4a14.57 14.57 0 0 0 1.77-2.19c1.28-2 .51-5.25.12-6.53A10.7 10.7 0 0 1 60 29.41c.07.85.12 1.72.12 2.59A28.14 28.14 0 0 1 32 60.1z"/></symbol><symbol id="appstudio" viewBox="0 0 64 64"><path d="M31.5 15.9a4.4 4.4 0 1 1 4.4-4.4 4.4 4.4 0 0 1-4.4 4.4zm0-8a3.6 3.6 0 1 0 3.6 3.6 3.6 3.6 0 0 0-3.6-3.6zm19.76 54.15a.62.62 0 0 1-.39-.14l-2-1.57a10.8 10.8 0 0 1-3.53-4.77l-7.87-21a.38.38 0 0 0-.24-.22l-3-.85-2.59-8.16L29 33.49l-3 .85a.33.33 0 0 0-.24.22L19.1 52.27a13.2 13.2 0 0 1-6.7 7.31l-2.81 1.35a.65.65 0 0 1-.89-.81L24 18.65a10.33 10.33 0 0 1-2.9-7.15 10.44 10.44 0 0 1 3.46-7.75 10.31 10.31 0 0 1 8.11-2.59 10.39 10.39 0 0 1 6.51 17.34l7.59 20.67a21.48 21.48 0 0 1 2.38-.17 24.76 24.76 0 0 1 9.43 2.19.64.64 0 0 1 .39.66.65.65 0 0 1-.5.58 46.41 46.41 0 0 0-9.37 3l2.82 7.67a10.71 10.71 0 0 1 .47 5.8l-.49 2.54a.63.63 0 0 1-.41.48.59.59 0 0 1-.23.13zM34.81 32.84l2.59.73a1.18 1.18 0 0 1 .77.71l7.87 21a10.05 10.05 0 0 0 3.27 4.42l1.85 1.42.44-2.31a10 10 0 0 0-.43-5.36L48.1 45.1l.5-.24a46.37 46.37 0 0 1 9.25-3.08 23.74 23.74 0 0 0-8.7-2 22.12 22.12 0 0 0-2.38.14l-.54.06-8-21.72.18-.18a9.6 9.6 0 1 0-13.73.14l.18.18-.09.24L9.58 60l2.47-1.18a12.45 12.45 0 0 0 6.3-6.82L25 34.28a1.14 1.14 0 0 1 .77-.71l2.58-.73L31 24.53a.61.61 0 0 1 .58-.43.61.61 0 0 1 .58.44zM9.45 60.39zm22.32-35.61zM27 58a.64.64 0 0 1-.35-.1.62.62 0 0 1-.29-.68 23.73 23.73 0 0 1 8.84-13.16l.43-.31 2.52 6.74-.28.17a122.15 122.15 0 0 0-10.5 7.23.67.67 0 0 1-.37.11zm8.28-13a23.16 23.16 0 0 0-8 12c4.22-3.24 8.4-5.89 10-6.86z"/></symbol><symbol id="experience-builder" viewBox="0 0 64 64"><path d="M59.18 23.49a2 2 0 0 0-1-1.23L53.88 20v-7.18a3.72 3.72 0 0 0-3.71-3.72H33.71l-9.25-4.89a.93.93 0 0 0-.94 0 .86.86 0 0 0-.42.79v8.79a1.15 1.15 0 0 0 1.15 1.14h22.83a1 1 0 0 1 1 1V52.8h2.09a3.72 3.72 0 0 0 3.71-3.72v-16l5.06-8a2 2 0 0 0 .24-1.59zm-.92 1.14l-5.18 8.22v16.23A2.92 2.92 0 0 1 50.17 52h-1.29V15.9a1.81 1.81 0 0 0-1.8-1.8H24.25a.34.34 0 0 1-.35-.34V4.92a.14.14 0 0 1 .14 0l9.34 4.93 16.75.05a2.92 2.92 0 0 1 2.91 2.92v7.64L57.82 23a1.15 1.15 0 0 1 .44 1.66zM23.1 36.9h16.8V23.1H23.1zm.8-13h15.2v12.2H23.9zM38.79 45H15.55a.65.65 0 0 1-.65-.65V9.1H12A2.9 2.9 0 0 0 9.1 12v13.72L3.72 35a2 2 0 0 0 .72 2.7l4.66 2.64v8.74a3.73 3.73 0 0 0 3.72 3.72h16.12l9.57 5.48a.93.93 0 0 0 .46.12.94.94 0 0 0 .93-.93V46.09A1.11 1.11 0 0 0 38.79 45zm.31 12.47a.12.12 0 0 1-.06.11.17.17 0 0 1-.14 0L29.15 52H12.82a2.92 2.92 0 0 1-2.92-2.92v-9.21L4.84 37a1.18 1.18 0 0 1-.55-.72 1.16 1.16 0 0 1 .12-.89L9.85 26l.05-.09V12A2.1 2.1 0 0 1 12 9.9h2.1v34.45a1.45 1.45 0 0 0 1.45 1.45h23.24a.3.3 0 0 1 .31.3z"/></symbol></defs></svg>