<svg xmlns="http://www.w3.org/2000/svg"><symbol id="knowledge-base-64" viewBox="0 0 64 64" xmlns="http://www.w3.org/2000/svg"><path d="M25 20.1v.8H9v-.8zM9 27.9h16v-.8H9zm0 7h16v-.8H9zm7 6h9v-.8h-9zm45.9-29.8v40.8H41.123a11.682 11.682 0 0 0-8.26 3.855l-.308.372-.055-.066-.055.066-.308-.372a11.682 11.682 0 0 0-8.26-3.855H3.1V11.1h20.777a12.91 12.91 0 0 1 8.623 3.475 12.91 12.91 0 0 1 8.623-3.475zM32.1 54.56V15.305a12.278 12.278 0 0 0-8.223-3.405H3.9v39.2h19.977a12.107 12.107 0 0 1 8.223 3.46zm29-42.66H41.123a12.278 12.278 0 0 0-8.223 3.405v39.254a12.108 12.108 0 0 1 8.223-3.46H61.1zM48.9 30.383V12h-.8v16.451l-2.1-2.1-2.1 2.1V12h-.8v18.383l2.9-2.9z"/></symbol><symbol viewBox="0 0 24 24" id="applications-24" xmlns="http://www.w3.org/2000/svg"><path d="M13.845 5.531c.002-.035.005-.064.008-.089l-.005-.001a.642.642 0 0 1-.419-.27.51.51 0 0 1-.056-.43c.022-.053.045-.105.069-.153a.51.51 0 0 1 .36-.282l.094-.013a.487.487 0 0 1 .322.123.943.943 0 0 1 .276.415.492.492 0 0 1 .016.235.528.528 0 0 1 .357.467.678.678 0 0 1-.316.588.34.34 0 0 1-.162.035.59.59 0 0 1-.345-.124.548.548 0 0 1-.2-.5zM17.978 21A11.496 11.496 0 0 1 2.058 4.945a11.724 11.724 0 0 1 4.119-3.637h.005A11.58 11.58 0 0 1 13.618.202l.002.002a11.494 11.494 0 0 1 9.325 10.188v.004a11.429 11.429 0 0 1-2.732 8.597l-.728-.728a10.42 10.42 0 0 0 .997-1.355l.01-.015q.228-.378.424-.777l.022-.046c.15-.308.25-.545.357-.819a3.554 3.554 0 0 1-.47-1.135s-.118-.398-.146-.483a1.86 1.86 0 0 0-.05-.128 4.023 4.023 0 0 1-.519-1.12 3.831 3.831 0 0 1-.132-.535c-.065.012-.277.04-.277.04h-.058a1.386 1.386 0 0 1-.45-.08l-.072-.023-.332.459h-.632l-.067-.009a4.278 4.278 0 0 1-2.02-.96 1.226 1.226 0 0 1-.33-.666l-.084-.004a7.124 7.124 0 0 0-.72.043.796.796 0 0 0-.143.072l-.045.022-.112.177-.794.021-.181-.067a2.074 2.074 0 0 1-.302-.145 1.934 1.934 0 0 1-.334.276c-.26.179-.272.21-.294.265a1.498 1.498 0 0 1-.505.732 1.728 1.728 0 0 1-.436.236l-.216.074a2.024 2.024 0 0 0-.737 1.005.644.644 0 0 0-.008.162 2.264 2.264 0 0 1-.449 1.34l.232.217a2.116 2.116 0 0 1 .58.89.96.96 0 0 0 .268.47.846.846 0 0 0 .402.228c.072-.002.172-.018.28-.032l.22-.034c.147-.022.306-.044.442-.059.06-.008.132-.007.196-.014v1c-.02.003-.042.002-.06.005-.172.018-.337.043-.488.064l-.15.025a3.885 3.885 0 0 1-.436.044 1.675 1.675 0 0 1-1.048-.46 1.918 1.918 0 0 1-.585-.95 1.162 1.162 0 0 0-.324-.466l-.213-.2a1.06 1.06 0 0 1-.177-.198 1.186 1.186 0 0 1-.18-.523 1.01 1.01 0 0 1 .013-.27.485.485 0 0 1 .161-.27 1.157 1.157 0 0 0 .315-.807 1.561 1.561 0 0 1 .035-.39 2.478 2.478 0 0 1 .21-.522 2.682 2.682 0 0 1 1.172-1.198l.215-.075a.67.67 0 0 0 .145-.075.519.519 0 0 0 .181-.277 1.515 1.515 0 0 1 .67-.76 1.21 1.21 0 0 0 .212-.175l.106-.12a1.239 1.239 0 0 1 .14-.147.487.487 0 0 1 .34-.138.45.45 0 0 1 .15.023.975.975 0 0 1 .234.112.367.367 0 0 1 .073.038l.115.07a1.261 1.261 0 0 0 .184.091l.074-.001.134-.043.082-.042a1.291 1.291 0 0 1 .56-.198 7.689 7.689 0 0 1 .796-.046l.137.005a2.578 2.578 0 0 1 .499.055.57.57 0 0 1 .451.567l-.02.133c.002.02.002.051.005.076a.236.236 0 0 0 .073.152 3.5 3.5 0 0 0 1.424.65c.057 0 .074-.018.087-.04a.66.66 0 0 0 .04-.09l.026-.095a.492.492 0 0 1 .477-.375.763.763 0 0 1 .085.012.81.81 0 0 1 .31.102 1.67 1.67 0 0 0 .237.095.492.492 0 0 0 .156.035 1.26 1.26 0 0 0 .353-.084c.146-.057.26-.102.433-.154a.277.277 0 0 0 .212-.311 1.348 1.348 0 0 0-.145-.536c-.045-.12-.182-.2-.388-.228a1.876 1.876 0 0 0-.207-.009l-.14.002a.508.508 0 0 1-.476-.309.544.544 0 0 0-.094-.163.317.317 0 0 0-.067-.055c.007.01-.022.034-.042.068a.529.529 0 0 1-.427.271.48.48 0 0 1-.444-.2.936.936 0 0 1-.156-.397.678.678 0 0 0-.161-.275 5.006 5.006 0 0 0-.349-.352 2.387 2.387 0 0 0-.349-.262.18.18 0 0 0-.022-.015.553.553 0 0 1-.294.337.5.5 0 0 1-.23.05.525.525 0 0 1-.313-.097 3.541 3.541 0 0 0-.282-.206.515.515 0 0 0-.268-.074.836.836 0 0 0-.446.154.988.988 0 0 0-.126.12l-.089.124a.892.892 0 0 1-.35.318.413.413 0 0 0-.14.118.402.402 0 0 0-.044.074l-.036.077a1.706 1.706 0 0 1-.11.224.934.934 0 0 1-.21.253.666.666 0 0 1-.468.195c-.014 0-.073-.001-.091-.003a1.414 1.414 0 0 1-.198-.046 1.214 1.214 0 0 1-.118-.035l-.194-.052a.514.514 0 0 1-.384-.526 5.312 5.312 0 0 1 .037-.72 1.484 1.484 0 0 1 .087-.331.542.542 0 0 1 .602-.278l.113.029a1.927 1.927 0 0 0 .282.055.606.606 0 0 0 .097.006.857.857 0 0 0 .202-.026c.039-.008.096-.021.09-.155a1.414 1.414 0 0 0-.092-.355l-.047-.104a.495.495 0 0 1 .262-.644 2.118 2.118 0 0 0 .704-.506 3.387 3.387 0 0 1 .393-.41 2.25 2.25 0 0 1 .23-.19.546.546 0 0 1 .306-.093.5.5 0 0 1 .196.04l.077.034a1.02 1.02 0 0 0 .454.107c.433 0 .481-.086.61-.315a.758.758 0 0 0-.177-1.04.868.868 0 0 1-.316-.255.094.094 0 0 0-.13-.011c-.142.143-.1.364-.087.577l.01.114a.483.483 0 0 1-.251.46.469.469 0 0 1-.24.065.486.486 0 0 1-.282-.09 4.772 4.772 0 0 1-.67-.563.61.61 0 0 1-.148-.626 1.792 1.792 0 0 1 .098-.154c.504-.685.204-.987 1.064-1.356a10.406 10.406 0 0 0-3.028-.996c-.99 1-.078 1.042-1.953.989a3.358 3.358 0 0 0-1.341.503c-.694.377-1.198-.56-.052-1.51a10.398 10.398 0 0 0-1.884.476c-.109.363-.986 1.747-1.43 1.747-.228-.024-.645-.169-.787-.169-.143 0-.214.035-.348.391-.286.718-.618.51-1.351.493a10.424 10.424 0 0 0-3.075 7.586 2.427 2.427 0 0 1 .194.398c.116.298.255.577.394.854l.076.156a7.446 7.446 0 0 1 .448 1.063 2.03 2.03 0 0 1 .067.93 1.712 1.712 0 0 0-.03.308.373.373 0 0 0 .072.216 2.215 2.215 0 0 0 .349.277l.73.473a4.971 4.971 0 0 1 1.276 1.004c.037.047.068.095.09.13a.532.532 0 0 1 .021.395.578.578 0 0 1-.256.312 2.517 2.517 0 0 0-.312.19.431.431 0 0 0-.21.376 10.416 10.416 0 0 0 11.017 2.669c.019-.035.047-.07.069-.104A1.496 1.496 0 0 0 16 19.9v-.879l.65.65c.001.012.005.021.006.033a2.865 2.865 0 0 1-.063.942c.219-.121.42-.268.628-.404zm3.827-7.508a5.462 5.462 0 0 0-.843-1.825 17.455 17.455 0 0 0 .793 2.068q.027-.121.05-.243zm-5.03-7.145a1.924 1.924 0 0 1-.644-.11 2.17 2.17 0 0 0-.235.251 2.854 2.854 0 0 1-.488.45 1.671 1.671 0 0 1 .38-.045 1.476 1.476 0 0 1 .59.122l.183-.654 1.19.702a3.612 3.612 0 0 1 .463.353 6.044 6.044 0 0 1 .462.472c.222.278-.03.452-.039.695s.95-.426.95-.426l.248.15.13.16c.028.034.055.07.08.105.061.002.127.007.2.016a1.676 1.676 0 0 1 1.316 2.235 3.648 3.648 0 0 1 .435.592 10.482 10.482 0 0 0-3.824-8.016h-.103a1.77 1.77 0 0 1-1.293 2.948zm-5.37-5.199c.173.004.443.03.575.029l.093-.147c-.189-.01-.375-.029-.566-.029a1.853 1.853 0 0 1-.102.147zM3.441 17.635a11.16 11.16 0 0 0-.676-.46l-.132-.085q.263.41.564.797a1.557 1.557 0 0 1 .244-.252zm18.827 4.825l-6.56-6.56H19v-1h-5v5h1v-3.293l6.56 6.56z"/></symbol><symbol viewBox="0 0 24 24" id="applications-24-f" xmlns="http://www.w3.org/2000/svg"><path d="M14.51 5.066a.528.528 0 0 1 .357.467.522.522 0 1 1-1.022-.002c.002-.035.005-.064.008-.089l-.005-.001a.642.642 0 0 1-.419-.27.51.51 0 0 1-.056-.43c.348-.841 1.266-.376 1.137.325zm-.253 17.588A11.463 11.463 0 0 1 0 11.5v-.021a11.52 11.52 0 0 1 6.177-10.17h.005A11.594 11.594 0 0 1 13.618.2l.002.002a11.433 11.433 0 0 1 4.335 1.78l.01.003c.107.072.201.156.305.232a11.45 11.45 0 0 1 4.675 8.173v.004a11.528 11.528 0 0 1-.286 3.865A.988.988 0 0 0 22 14h-7a1 1 0 0 0-1 1v2.544c-1.781-.175-2.13.502-3.182-.38a1.918 1.918 0 0 1-.585-.95 1.162 1.162 0 0 0-.324-.465 3.152 3.152 0 0 1-.39-.398 1.139 1.139 0 0 1-.167-.794c.09-.435.476-.222.476-1.076a2.615 2.615 0 0 1 1.417-2.11l.215-.075a10.049 10.049 0 0 1 .997-1.112 1.42 1.42 0 0 0 .317-.295.561.561 0 0 1 .864-.15s.29.169.372.2l.074-.002a3.552 3.552 0 0 1 2.208-.269.57.57 0 0 1 .451.567.737.737 0 0 0-.015.209c.033.338 1.17.759 1.497.803.08 0 .095-.046.126-.13.114-.415.378-.53.589-.458a2.89 2.89 0 0 1 .547.196.714.714 0 0 0 .51-.05c.586-.227.869-.182.5-1-.095-.248-.472-.238-.735-.235-.606 0-.34-.367-.638-.527.007.01-.022.034-.042.068a.52.52 0 0 1-.871.07c-.299-.433-.037-.753-1.037-1.3a.545.545 0 0 1-.525.387c-.703 0-.466-.767-1.308-.223-.272.202-.2.384-.566.562-.204.117-.202.284-.328.493a.831.831 0 0 1-.679.448 1.32 1.32 0 0 1-.407-.084c-1.002-.27-.69-2.125.26-1.878a1.927 1.927 0 0 0 .283.055.606.606 0 0 0 .097.006c.24 0 .44-.003.153-.64-.247-.623.543-.631.966-1.15 1.138-1.53 1.68.21 2.266-.826a.948.948 0 0 0 .072-.777c-.052-.186-.286-.27-.435-.383-.073-.053-.146-.169-.2-.169-.09 0-.162.165-.162.25 0 .137.014.329.024.463a.492.492 0 0 1-.772.436c-.538-.366-1.096-.816-.72-1.344a4.654 4.654 0 0 0 .357-.712 1.422 1.422 0 0 1 .707-.644 10.406 10.406 0 0 0-3.028-.996c-.99 1-.115 1.027-1.792.993l-.16-.004a3.357 3.357 0 0 0-1.342.503.513.513 0 0 1-.501-.001.503.503 0 0 1-.24-.447 1.379 1.379 0 0 1 .503-.892 2.156 2.156 0 0 1 .186-.17 10.398 10.398 0 0 0-1.884.476 1.418 1.418 0 0 1-.18.394c-.25.372-.626.895-.862 1.176a.506.506 0 0 1-.388.177 1.554 1.554 0 0 1-.36-.074 1.62 1.62 0 0 0-.427-.095c-.268 0-.403.926-1.01.926-.018 0-.405-.035-.69-.042A10.467 10.467 0 0 0 1 11.5c0 .054.007.107.008.161.09.15.985 2.075 1.112 2.471.471 1.472-.808.911 1.188 2.204 2.026 1.29 1.506 1.531.819 2.031a.431.431 0 0 0-.21.376A10.462 10.462 0 0 0 11.5 22a10.29 10.29 0 0 0 2.5-.314V22a.987.987 0 0 0 .257.654zm6.705-10.988a2.536 2.536 0 0 0 .103.422 3.016 3.016 0 0 0 .365.819c.01.009.07.06.19.387.038.115.077.242.117.374l.018.066q.027-.121.05-.243c-.011-.055-.032-.11-.038-.164a5.846 5.846 0 0 0-.805-1.661zM22 15h-7v7h2v-3.586L21.585 23 23 21.585 18.415 17H22z"/></symbol><symbol viewBox="0 0 24 24" id="caret-down-24" xmlns="http://www.w3.org/2000/svg"><path d="M23.5 8l-11 11-11-11zM3.914 9l8.586 8.586 8.586-8.585z"/></symbol><symbol viewBox="0 0 24 24" id="caret-down-24-f" xmlns="http://www.w3.org/2000/svg"><path d="M23.5 8l-11 11-11-11z"/></symbol><symbol viewBox="0 0 16 16" id="chevron-down-16" xmlns="http://www.w3.org/2000/svg"><path d="M13 5.293v1.414l-4.5 4.5-4.5-4.5V5.293l4.5 4.5z"/></symbol><symbol viewBox="0 0 16 16" id="chevron-down-16-f" xmlns="http://www.w3.org/2000/svg"><path d="M14 4.217v2.766l-6 6-6-6V4.217l6 6z"/></symbol><symbol viewBox="0 0 24 24" id="chevron-down-24" xmlns="http://www.w3.org/2000/svg"><path d="M19 8.293v1.414l-7.5 7.5-7.5-7.5V8.293l7.5 7.5z"/></symbol><symbol viewBox="0 0 24 24" id="chevron-down-24-f" xmlns="http://www.w3.org/2000/svg"><path d="M3 9.783V7.017l9 9 9-9v2.766l-9 9z"/></symbol><symbol viewBox="0 0 16 16" id="chevron-right-16" xmlns="http://www.w3.org/2000/svg"><path d="M5.293 3h1.414l4.5 4.5-4.5 4.5H5.293l4.5-4.5z"/></symbol><symbol viewBox="0 0 16 16" id="chevron-right-16-f" xmlns="http://www.w3.org/2000/svg"><path d="M10.217 8l-6-6h2.766l6 6-6 6H4.217z"/></symbol><symbol viewBox="0 0 24 24" id="chevron-right-24" xmlns="http://www.w3.org/2000/svg"><path d="M8.293 5h1.414l7.5 7.5-7.5 7.5H8.293l7.5-7.5z"/></symbol><symbol viewBox="0 0 24 24" id="chevron-right-24-f" xmlns="http://www.w3.org/2000/svg"><path d="M18.783 12l-9 9H7.017l9-9-9-9h2.766z"/></symbol><symbol viewBox="0 0 24 24" id="dashboard-24" xmlns="http://www.w3.org/2000/svg"><path d="M5.191 18.583l-.694.725A10.492 10.492 0 1 1 18.86 4.018l-.71.71A9.489 9.489 0 1 0 5.19 18.583zM7.266 7.968l.707-.707-1.315-1.315A7.338 7.338 0 0 1 11 4.146V6h1V4.146a7.353 7.353 0 0 1 4.652 2.081l.71-.71a8.373 8.373 0 1 0-11.399 12.26c.67-.698.257-.277 1.993-2.013l-.707-.707-1.29 1.289A7.333 7.333 0 0 1 4.145 12H6v-1H4.144a7.345 7.345 0 0 1 1.807-4.347zm6.318 4.155a2.505 2.505 0 1 1-.707-.707l8.648-8.648.707.707zM13 13.5a1.5 1.5 0 1 0-1.5 1.5 1.502 1.502 0 0 0 1.5-1.5zm6.947-6.326a9.442 9.442 0 0 1-2.138 11.41l.694.724a10.473 10.473 0 0 0 2.19-12.88zm-.837.837l-.76.76a7.303 7.303 0 0 1-1.301 7.565l-1.297-1.297-.708.707 1.993 2.031a8.339 8.339 0 0 0 2.073-9.766z"/></symbol><symbol viewBox="0 0 24 24" id="dashboard-24-f" xmlns="http://www.w3.org/2000/svg"><path d="M11 6.146a7.338 7.338 0 0 0-4.342 1.8L7.973 9.26l-.707.707-1.315-1.316A7.338 7.338 0 0 0 4.146 13H6v1H4.149a7.324 7.324 0 0 0 1.81 4.346l1.29-1.29.707.708c-2.174 2.174-.987.974-2.767 2.817l.002.002-.694.725A10.492 10.492 0 1 1 18.86 6.018L17.18 7.7l.182-.182-.71.71A7.353 7.353 0 0 0 12 6.145V8h-1zm7.503 15.162a10.473 10.473 0 0 0 2.19-12.88l-.487.487-.259.259-1.597 1.597a7.303 7.303 0 0 1-1.301 7.565L15.75 17.04l-.707.707 2.774 2.828-.01.009zm3.022-16.54l-8.648 8.648a2.505 2.505 0 1 0 .707.707l8.648-8.648z"/></symbol><symbol viewBox="0 0 24 24" id="hamburger-24" xmlns="http://www.w3.org/2000/svg"><path d="M21 6H3V5h18zm0 6H3v1h18zm0 7H3v1h18z"/></symbol><symbol viewBox="0 0 24 24" id="hamburger-24-f" xmlns="http://www.w3.org/2000/svg"><path d="M21 6H3V4h18zm0 5H3v2h18zm0 7H3v2h18z"/></symbol><symbol viewBox="0 0 24 24" id="layer-24" xmlns="http://www.w3.org/2000/svg"><path d="M23.881 20.983s-4.576-2.288-11.44 0-11.441 0-11.441 0L4.05 2.678s4.577 1.525 8.39 0 8.39 0 8.39 0zm-11.756-.949a20.03 20.03 0 0 1 6.333-1.068 16.253 16.253 0 0 1 4.16.521l-2.67-16.02A15.195 15.195 0 0 0 16.311 3a9.415 9.415 0 0 0-3.499.606 11.392 11.392 0 0 1-4.241.75 17.121 17.121 0 0 1-3.715-.429L2.12 20.348A13.713 13.713 0 0 0 6.424 21a18.043 18.043 0 0 0 5.7-.966z"/></symbol><symbol viewBox="0 0 24 24" id="layer-24-f" xmlns="http://www.w3.org/2000/svg"><path d="M23.881 20.983s-4.576-2.288-11.44 0-11.441 0-11.441 0L4.05 2.678s4.577 1.525 8.39 0 8.39 0 8.39 0z"/></symbol><symbol viewBox="0 0 16 16" id="plus-16" xmlns="http://www.w3.org/2000/svg"><path d="M14 8H9v5H8V8H3V7h5V2h1v5h5z"/></symbol><symbol viewBox="0 0 16 16" id="plus-16-f" xmlns="http://www.w3.org/2000/svg"><path d="M9 7h5v2H9v5H7V9H2V7h5V2h2z"/></symbol><symbol viewBox="0 0 24 24" id="plus-24" xmlns="http://www.w3.org/2000/svg"><path d="M22 13h-9v9h-1v-9H3v-1h9V3h1v9h9z"/></symbol><symbol viewBox="0 0 24 24" id="plus-24-f" xmlns="http://www.w3.org/2000/svg"><path d="M20 13h-7v7h-3v-7H3v-3h7V3h3v7h7z"/></symbol><symbol viewBox="0 0 24 24" id="search-24" xmlns="http://www.w3.org/2000/svg"><path d="M21.995 21.288l-6.855-6.855a7.517 7.517 0 1 0-.707.707l6.855 6.855zm-17.092-7.19a6.501 6.501 0 1 1 9.6-.45l-.854.855a6.501 6.501 0 0 1-8.746-.405z"/></symbol><symbol viewBox="0 0 24 24" id="search-24-f" xmlns="http://www.w3.org/2000/svg"><path d="M22.289 20.91l-6.847-6.846a7.524 7.524 0 1 0-1.419 1.409l6.852 6.852zM4 9.5A5.5 5.5 0 1 1 9.5 15 5.506 5.506 0 0 1 4 9.5z"/></symbol><symbol viewBox="0 0 24 24" id="user-24" xmlns="http://www.w3.org/2000/svg"><path d="M16 4a4 4 0 1 0-4 4 4 4 0 0 0 4-4zm-4 3a3 3 0 1 1 3-3 3.003 3.003 0 0 1-3 3zm4.75 1h-9.5A2.25 2.25 0 0 0 5 10.25v9.25A1.5 1.5 0 0 0 6.5 21H8v2.25a.75.75 0 0 0 .75.75h6.5a.75.75 0 0 0 .75-.75V21h1.5a1.5 1.5 0 0 0 1.5-1.5v-9.25A2.25 2.25 0 0 0 16.75 8zM18 19.5a.501.501 0 0 1-.5.5H16v-8h-1v11H9V12H8v8H6.5a.501.501 0 0 1-.5-.5v-9.25A1.251 1.251 0 0 1 7.25 9h9.5A1.251 1.251 0 0 1 18 10.25z"/></symbol><symbol viewBox="0 0 24 24" id="user-24-f" xmlns="http://www.w3.org/2000/svg"><path d="M16 4a4 4 0 1 1-4-4 4 4 0 0 1 4 4zm.75 4h-9.5A2.25 2.25 0 0 0 5 10.25v9.25A1.5 1.5 0 0 0 6.5 21H7v-9h1v11.25a.75.75 0 0 0 .75.75h6.5a.75.75 0 0 0 .75-.75V12h1v9h.5a1.5 1.5 0 0 0 1.5-1.5v-9.25A2.25 2.25 0 0 0 16.75 8z"/></symbol><symbol viewBox="0 0 24 24" id="x-24" xmlns="http://www.w3.org/2000/svg"><path d="M13.207 12.5l7.778 7.778-.707.707-7.778-7.778-7.778 7.778-.707-.707 7.778-7.778-7.778-7.778.707-.707 7.778 7.778 7.778-7.778.707.707z"/></symbol><symbol viewBox="0 0 24 24" id="x-24-f" xmlns="http://www.w3.org/2000/svg"><path d="M13.621 11.5l4.95 4.95-2.121 2.121-4.95-4.95-4.95 4.95-2.12-2.121 4.95-4.95-4.95-4.95 2.12-2.12 4.95 4.95 4.95-4.95 2.12 2.12z"/></symbol></svg>
