<svg xmlns="http://www.w3.org/2000/svg"><symbol viewBox="0 0 48 53" id="android_filled" xmlns="http://www.w3.org/2000/svg"><path d="M31.45 13.1A1.5 1.5 0 1 1 30 11.6a1.5 1.5 0 0 1 1.45 1.5zm-11.16-1.5a1.5 1.5 0 1 0 1.5 1.5 1.5 1.5 0 0 0-1.5-1.5zM48 6.48V43L24 53 0 46.52V10.6L24 0zM13.26 21.56a2.36 2.36 0 0 0-4.71 0v9.87a2.36 2.36 0 1 0 4.71 0zm22.27 13.38V19.65H14.59V35a2.51 2.51 0 0 0 2.51 2.51h1.71v5.22a2.36 2.36 0 1 0 4.71 0v-5.27h3.19v5.22a2.36 2.36 0 0 0 4.72 0v-5.22h1.72a2.41 2.41 0 0 0 2.38-2.52zm.2-17.11a9.63 9.63 0 0 0-5.41-8.48h.08l1.8-3.17c.09-.15-.05-.4-.21-.48s-.56-.12-.64 0L29.54 9a10.43 10.43 0 0 0-4.42-.88 11.54 11.54 0 0 0-4.67.79l-1.67-3a.39.39 0 0 0-.5-.12.5.5 0 0 0-.2.56l1.65 3a9.49 9.49 0 0 0-5.22 8.54zm5.82 13.6v-9.87a2.36 2.36 0 0 0-4.71 0v9.87a2.36 2.36 0 1 0 4.71 0z"/></symbol><symbol viewBox="0 0 48 53" id="android_outline" xmlns="http://www.w3.org/2000/svg"><path d="M24.16 2.12L46 8v33.66l-22.14 9.23L2 45V11.9l22.16-9.78M24 0L0 10.6v35.92L24 53l24-10V6.48L24 0zM13.26 21.56a2.36 2.36 0 0 0-4.71 0v9.87a2.36 2.36 0 1 0 4.71 0zm22.27 13.38V19.65H14.59V35a2.51 2.51 0 0 0 2.51 2.51h1.71v5.22a2.36 2.36 0 1 0 4.71 0v-5.27h3.19v5.22a2.36 2.36 0 0 0 4.72 0v-5.22h1.72a2.41 2.41 0 0 0 2.38-2.52zm6-3.51v-9.87a2.36 2.36 0 0 0-4.71 0v9.87a2.36 2.36 0 1 0 4.71 0zM30.32 9.35h.08l1.8-3.17c.09-.15-.05-.4-.21-.48s-.56-.12-.64 0L29.54 9a10.43 10.43 0 0 0-4.42-.88 11.54 11.54 0 0 0-4.67.79l-1.67-3a.39.39 0 0 0-.5-.12.5.5 0 0 0-.2.56l1.65 3a9.49 9.49 0 0 0-5.22 8.54h21.22a9.63 9.63 0 0 0-5.41-8.54zm-10 5.25a1.5 1.5 0 1 1 1.5-1.5 1.5 1.5 0 0 1-1.53 1.5zm9.66 0a1.5 1.5 0 1 1 1.5-1.5A1.5 1.5 0 0 1 30 14.6z"/></symbol><symbol viewBox="0 0 48 53" id="arcade_filled" xmlns="http://www.w3.org/2000/svg"><path d="M24 0L0 10.6v35.92L24 53l24-10V6.48zm9.49 41.93l.36-2.4a36.86 36.86 0 0 0 .46-5.53v-7.48A11 11 0 0 0 31.89 19a9.53 9.53 0 0 0-7.18-3.14 10.66 10.66 0 0 0-1.87.17.06.06 0 0 1-.07-.05.06.06 0 0 1 0-.07A10.69 10.69 0 0 1 28.39 14 10.81 10.81 0 0 1 39 24.68V34a35.46 35.46 0 0 0 .52 5.54l.42 2.4zm-11.36-4.69h8.41c0 .12-.31 2.26-.48 3.49a1.39 1.39 0 0 1-1.38 1.2H17.44V26.84a7.46 7.46 0 0 1 7.27-7.18 7 7 0 0 1 3.29 1.1.07.07 0 0 1 0 .09.05.05 0 0 1-.05 0c-3.59.24-5.8 3.23-5.8 6.88zm-8.44-14.66v19.35H8.07l.6-2.58A35.13 35.13 0 0 0 9 33.83V22.25A14.53 14.53 0 0 1 23.31 7.5h.16a14.91 14.91 0 0 1 9.47 3.5.06.06 0 0 1 0 .09.07.07 0 0 1-.07 0c-9.33-3.28-19.18 1.1-19.18 11.49z"/></symbol><symbol viewBox="0 0 48 53" id="arcade_outline" xmlns="http://www.w3.org/2000/svg"><path d="M24.16 2.12L46 8v33.66l-22.14 9.23L2 45V11.9l22.16-9.78M24 0L0 10.6v35.92L24 53l24-10V6.48L24 0zm9.49 41.93l.36-2.4a36.86 36.86 0 0 0 .46-5.53v-7.48A11 11 0 0 0 31.89 19a9.53 9.53 0 0 0-7.18-3.14 10.66 10.66 0 0 0-1.87.17.06.06 0 0 1-.07-.05.06.06 0 0 1 0-.07A10.69 10.69 0 0 1 28.39 14 10.81 10.81 0 0 1 39 24.68V34a35.46 35.46 0 0 0 .52 5.54l.42 2.4zm-11.36-4.69h8.41c0 .12-.31 2.26-.48 3.49a1.39 1.39 0 0 1-1.38 1.2H17.44V26.84a7.46 7.46 0 0 1 7.27-7.18 7 7 0 0 1 3.29 1.1.07.07 0 0 1 0 .09.05.05 0 0 1-.05 0c-3.59.24-5.8 3.23-5.8 6.88zm-8.44-14.66v19.35H8.07l.6-2.58A35.13 35.13 0 0 0 9 33.83V22.25A14.53 14.53 0 0 1 23.31 7.5h.16a14.91 14.91 0 0 1 9.47 3.5.06.06 0 0 1 0 .09.07.07 0 0 1-.07 0c-9.33-3.28-19.18 1.1-19.18 11.49z"/></symbol><symbol viewBox="0 0 48 53" id="arcgis-online_filled" xmlns="http://www.w3.org/2000/svg"><path d="M24 0L0 10.6v35.92L24 53l24-10V6.48zm3.41 44l-11.49-6.7 2.63-1.53 8.28 4.83a1.32 1.32 0 0 0 1.33 0l8.2-4.78 2.53 1.48zM18.8 31.12l8 4.68a1.32 1.32 0 0 0 1.33 0l8-4.68L39 32.75l-11.5 6.7-11.5-6.7zM16 28l11.49-6.7L39 28l-11.5 6.66zm24 8.46l-2.35-1.37 1.46-.85a6.83 6.83 0 0 0-.78-12.54l-1.57-.53-.24-1.64a10.22 10.22 0 0 0-9.76-9 9.85 9.85 0 0 0-8.58 5.38l-1 1.87-2.06-.53a4.18 4.18 0 0 0-1.04-.25 3.49 3.49 0 0 0-3.64 3.29l-.08 1.55-1.36.72a6.48 6.48 0 0 0-3.57 5.77c0 3.16 2.61 6.25 5.26 6.25h5.86l.71.42-3.5 2H10.9c-4.1 0-7.83-4.26-7.83-8.81A9 9 0 0 1 8 20.2a6.06 6.06 0 0 1 6.22-5.75 6.27 6.27 0 0 1 1.72.24A12.29 12.29 0 0 1 26.74 8 12.69 12.69 0 0 1 39 19.17 9.26 9.26 0 0 1 45.24 28 9.44 9.44 0 0 1 40 36.42z"/></symbol><symbol viewBox="0 0 48 53" id="arcgis-online_outline" xmlns="http://www.w3.org/2000/svg"><path d="M24.16 2.12L46 8v33.66l-22.14 9.23L2 45V11.9l22.16-9.78M24 0L0 10.6v35.92L24 53l24-10V6.48L24 0zm3.41 44l-11.49-6.7 2.63-1.53 8.28 4.83a1.32 1.32 0 0 0 1.33 0l8.2-4.78 2.53 1.48zM18.8 31.12l8 4.68a1.32 1.32 0 0 0 1.33 0l8-4.68L39 32.75l-11.5 6.7-11.5-6.7zM16 28l11.49-6.7L39 28l-11.5 6.66zm24 8.46l-2.35-1.37 1.46-.85a6.83 6.83 0 0 0-.78-12.54l-1.57-.53-.24-1.64a10.22 10.22 0 0 0-9.76-9 9.85 9.85 0 0 0-8.58 5.38l-1 1.87-2.06-.53a4.18 4.18 0 0 0-1.04-.25 3.49 3.49 0 0 0-3.64 3.29l-.08 1.55-1.36.72a6.48 6.48 0 0 0-3.57 5.77c0 3.16 2.61 6.25 5.26 6.25h5.86l.71.42-3.5 2H10.9c-4.1 0-7.83-4.26-7.83-8.81A9 9 0 0 1 8 20.2a6.06 6.06 0 0 1 6.22-5.75 6.27 6.27 0 0 1 1.72.24A12.29 12.29 0 0 1 26.74 8 12.69 12.69 0 0 1 39 19.17 9.26 9.26 0 0 1 45.24 28 9.44 9.44 0 0 1 40 36.42z"/></symbol><symbol viewBox="0 0 48 53" id="documentation-alt_filled" xmlns="http://www.w3.org/2000/svg"><path d="M24.94 30.49h8v1h-8zm8-15h-18v1h18zm-8 13h8v-1h-8zm0 6h5v-1h-5zm23-28V43l-24 10-24-6.48V10.6l24-10.6zm-11 5h-26v28h26zm-4 8h-18v1h18zm-11 8h-7v8h7zm11-4h-18v1h18z"/></symbol><symbol viewBox="0 0 48 53" id="documentation-alt_outline" xmlns="http://www.w3.org/2000/svg"><path d="M24.1 2.12L45.94 8v33.66L23.8 50.89 1.94 45V11.9L24.1 2.12M23.94 0l-24 10.6v35.92l24 6.48 24-10V6.48L23.94 0zm-13 11.49v28h26v-28zm11 24h-7v-8h7zm8-1h-5v-1h5zm3-3h-8v-1h8zm0-3h-8v-1h8zm0-4h-18v-1h18zm0-4h-18v-1h18zm0-4h-18v-1h18z"/></symbol><symbol viewBox="0 0 48 53" id="documentation_filled" xmlns="http://www.w3.org/2000/svg"><path d="M17.56 14a15.49 15.49 0 0 1 6 1.24V36h-.23a12.49 12.49 0 0 0-5.78-1c-2.68 0-5 1.27-7 2.23v-20.5C11.56 16 14.62 14 17.56 14zm30.5-7.5V43l-24 10-24-6.48V10.6l24-10.6zM28.56 29l2.5-2 2.5 2V8h-5zm10-12.75a18.22 18.22 0 0 0-4-2.34V15a16.72 16.72 0 0 1 3 1.76v20.42c-2-1-4.33-2.24-7-2.24a12.53 12.53 0 0 0-5.79 1h-.2V15.22a11.83 11.83 0 0 1 3-.92v-1a17.71 17.71 0 0 0-3.5 1 18.56 18.56 0 0 0-6.51-1.3c-4 0-8 3.25-8 3.25V39c.32-.21.91-.6 1.66-1H36.9c.76.44 1.34.83 1.66 1z"/></symbol><symbol viewBox="0 0 48 53" id="documentation_outline" xmlns="http://www.w3.org/2000/svg"><path d="M24.22 2.12L46.06 8v33.66l-22.14 9.23L2.06 45V11.9l22.16-9.78M24.06 0l-24 10.6v35.92l24 6.48 24-10V6.48L24.06 0zm4.5 29l2.5-2 2.5 2V8h-5zm6-15.09V15a16.72 16.72 0 0 1 3 1.76v20.42c-2-1-4.33-2.24-7-2.24a12.53 12.53 0 0 0-5.79 1h-.2V15.22a11.83 11.83 0 0 1 3-.92v-1a17.71 17.71 0 0 0-3.5 1 18.56 18.56 0 0 0-6.51-1.3c-4 0-8 3.25-8 3.25V39c.32-.21.91-.6 1.66-1H36.9c.76.44 1.34.83 1.66 1V16.23a18.22 18.22 0 0 0-4-2.34zM23.56 36h-.23a12.49 12.49 0 0 0-5.78-1c-2.68 0-5 1.27-7 2.23v-20.5c1-.75 4.06-2.75 7-2.75a15.49 15.49 0 0 1 6 1.24z"/></symbol><symbol viewBox="0 0 48 53" id="ios_filled" xmlns="http://www.w3.org/2000/svg"><path d="M25.87 23.88a6.52 6.52 0 0 1 .4 2.31 6.62 6.62 0 0 1-.4 2.32 5.82 5.82 0 0 1-1.14 1.89 5.56 5.56 0 0 1-9.34-1.89 6.62 6.62 0 0 1-.4-2.32 6.52 6.52 0 0 1 .4-2.31A5.46 5.46 0 0 1 16.53 22a5.3 5.3 0 0 1 1.77-1.28 5.87 5.87 0 0 1 4.65 0A5.34 5.34 0 0 1 24.73 22a5.62 5.62 0 0 1 1.14 1.88zM48 6.48V43L24 53 0 46.52V10.6L24 0zM10.25 23.66h-1.9v10h1.9zm.45-3.6a1.42 1.42 0 0 0-1.4-1.39 1.42 1.42 0 0 0-1.4 1.39 1.4 1.4 0 0 0 2.8 0zm17.73 6.13a8.39 8.39 0 0 0-.58-3.11 7.91 7.91 0 0 0-1.61-2.49 7.32 7.32 0 0 0-2.46-1.66 8.57 8.57 0 0 0-6.3 0A7.32 7.32 0 0 0 15 20.59a7.74 7.74 0 0 0-1.61 2.49 8.63 8.63 0 0 0 0 6.22A7.53 7.53 0 0 0 15 31.79a7.17 7.17 0 0 0 2.46 1.66 8.57 8.57 0 0 0 6.3 0 7.17 7.17 0 0 0 2.46-1.66 7.69 7.69 0 0 0 1.61-2.49 8.35 8.35 0 0 0 .6-3.11zm11.67 3.24a3.67 3.67 0 0 0-.55-2.13 4.21 4.21 0 0 0-1.37-1.22 7.28 7.28 0 0 0-1.77-.71 17 17 0 0 1-1.78-.57 4.16 4.16 0 0 1-1.36-.8 1.87 1.87 0 0 1-.55-1.46 2.13 2.13 0 0 1 .14-.74 2.18 2.18 0 0 1 .47-.75 2.67 2.67 0 0 1 .9-.57 4 4 0 0 1 1.41-.22 3.38 3.38 0 0 1 1.58.36 2.72 2.72 0 0 1 1.08.95L40 20a4 4 0 0 0-2-1.37 7.93 7.93 0 0 0-2.34-.34 5.94 5.94 0 0 0-2.32.41 4.92 4.92 0 0 0-1.57 1 4 4 0 0 0-1.19 2.74 3.93 3.93 0 0 0 1.92 3.68 7.08 7.08 0 0 0 1.77.79c.64.19 1.23.39 1.78.6a4.55 4.55 0 0 1 1.36.76 1.6 1.6 0 0 1 .55 1.32 2 2 0 0 1-.28 1.08 2.49 2.49 0 0 1-.7.78A3 3 0 0 1 36 32a3.4 3.4 0 0 1-1 .16 4.22 4.22 0 0 1-1.77-.39 3.27 3.27 0 0 1-1.4-1.21L30.12 32a4.48 4.48 0 0 0 2.05 1.57 7.35 7.35 0 0 0 2.73.5 6.38 6.38 0 0 0 2-.31 4.88 4.88 0 0 0 1.65-.91 4.23 4.23 0 0 0 1.11-1.46 4.41 4.41 0 0 0 .44-1.96z"/></symbol><symbol viewBox="0 0 48 53" id="ios_outline" xmlns="http://www.w3.org/2000/svg"><path d="M24.16 2.12L46 8v33.66l-22.14 9.23L2 45V11.9l22.16-9.78M24 0L0 10.6v35.92L24 53l24-10V6.48L24 0zM10.25 23.66h-1.9v10h1.9zm.45-3.6a1.42 1.42 0 0 0-1.4-1.39 1.42 1.42 0 0 0-1.4 1.39 1.4 1.4 0 0 0 2.8 0zm29.4 9.37a3.67 3.67 0 0 0-.55-2.13 4.21 4.21 0 0 0-1.37-1.22 7.28 7.28 0 0 0-1.77-.71 17 17 0 0 1-1.78-.57 4.16 4.16 0 0 1-1.36-.8 1.87 1.87 0 0 1-.55-1.46 2.13 2.13 0 0 1 .14-.74 2.18 2.18 0 0 1 .47-.75 2.67 2.67 0 0 1 .9-.57 4 4 0 0 1 1.41-.22 3.38 3.38 0 0 1 1.58.36 2.72 2.72 0 0 1 1.08.95L40 20a4 4 0 0 0-2-1.37 7.93 7.93 0 0 0-2.34-.34 5.94 5.94 0 0 0-2.32.41 4.92 4.92 0 0 0-1.57 1 4 4 0 0 0-1.19 2.74 3.93 3.93 0 0 0 1.92 3.68 7.08 7.08 0 0 0 1.77.79c.64.19 1.23.39 1.78.6a4.55 4.55 0 0 1 1.36.76 1.6 1.6 0 0 1 .55 1.32 2 2 0 0 1-.28 1.08 2.49 2.49 0 0 1-.7.78A3 3 0 0 1 36 32a3.4 3.4 0 0 1-1 .16 4.22 4.22 0 0 1-1.77-.39 3.27 3.27 0 0 1-1.4-1.21L30.12 32a4.48 4.48 0 0 0 2.05 1.57 7.35 7.35 0 0 0 2.73.5 6.38 6.38 0 0 0 2-.31 4.88 4.88 0 0 0 1.65-.91 4.23 4.23 0 0 0 1.11-1.46 4.41 4.41 0 0 0 .44-1.96zm-12.25-6.35a7.91 7.91 0 0 0-1.61-2.49 7.32 7.32 0 0 0-2.46-1.66 8.57 8.57 0 0 0-6.3 0A7.32 7.32 0 0 0 15 20.59a7.74 7.74 0 0 0-1.61 2.49 8.63 8.63 0 0 0 0 6.22A7.53 7.53 0 0 0 15 31.79a7.17 7.17 0 0 0 2.46 1.66 8.57 8.57 0 0 0 6.3 0 7.17 7.17 0 0 0 2.46-1.66 7.69 7.69 0 0 0 1.61-2.49 8.63 8.63 0 0 0 0-6.22zm-2 5.43a5.82 5.82 0 0 1-1.14 1.89 5.56 5.56 0 0 1-9.34-1.89 6.62 6.62 0 0 1-.4-2.32 6.52 6.52 0 0 1 .4-2.31A5.46 5.46 0 0 1 16.53 22a5.3 5.3 0 0 1 1.77-1.28 5.87 5.87 0 0 1 4.65 0A5.34 5.34 0 0 1 24.73 22a5.62 5.62 0 0 1 1.14 1.89 6.52 6.52 0 0 1 .4 2.31 6.62 6.62 0 0 1-.4 2.31z"/></symbol><symbol viewBox="0 0 48 53" id="java_filled" xmlns="http://www.w3.org/2000/svg"><path d="M24 0L0 10.6v35.92L24 53l24-10V6.48zm8.8 27.15c5-1.77 8.91 5.22-1.62 8a.61.61 0 0 0 .15-.21c7.89-4.09 4.24-8 1.7-7.5a6.28 6.28 0 0 0-.9.24 1.45 1.45 0 0 1 .67-.53zm-6.22-4.47c2.36 3.33-2.78 6-2.78 6s2.56-2.1.53-4.43c-6.87-7.92 7.52-11.52 7.52-11.52-9.17 5.27-7.48 6.85-5.27 9.95zm-9.09-5.19c2.88-4.32 10.85-6.41 9.09-13.35 0 0 4.37 4.37-4.14 11.08-6.83 5.39-1.56 8.47 0 12-3.99-3.62-6.91-6.78-4.95-9.73zM11 28.84a14.39 14.39 0 0 1 6.61-1.57s-7.64 1.82-2.7 2.48A57.66 57.66 0 0 0 25 29.64c3.16-.27 6.34-.83 6.34-.83a12.72 12.72 0 0 0-1.92 1C21.69 31.87 6.7 30.92 11 28.84zm7 9.05a24 24 0 0 0 8.71-.37A14.43 14.43 0 0 0 29 38.65c-8.23 3.53-18.62-.2-12.16-2 .02-.01-1.59.93 1.16 1.24zM15.85 32s-1.8 1.34 1 1.62a33.77 33.77 0 0 0 11.15-.5 5.17 5.17 0 0 0 1.73 1.06c-9.92 2.9-21 .22-13.88-2.18zm-2.24 7.89a5.6 5.6 0 0 0-1.45.16c-.88.19-3.7 1.1-2.2 1.75 4.17 1.82 19.19 1.38 23.94-.06 2.5-.75 1.31-1.73 1.31-1.73C39.56 42 25.76 46 9 43.24c-6.17-1 2.94-4.48 4.61-3.31zm4.8 6.11c-5-.32-5.95-1.12-5.95-1.12a62.13 62.13 0 0 0 19.16-.3c5.73-1.07 6.25-2.43 6.25-2.43C37.6 45.77 26 46.52 18.41 46z"/></symbol><symbol viewBox="0 0 48 53" id="java_outline" xmlns="http://www.w3.org/2000/svg"><path d="M24.16 2.12L46 8v33.66l-22.14 9.23L2 45V11.9l22.16-9.78M24 0L0 10.6v35.92L24 53l24-10V6.48L24 0zm8.8 27.15c5-1.77 8.91 5.22-1.62 8a.61.61 0 0 0 .15-.21c7.89-4.09 4.24-8 1.7-7.5a6.28 6.28 0 0 0-.9.24 1.45 1.45 0 0 1 .67-.53zm-6.22-4.47c2.36 3.33-2.78 6-2.78 6s2.56-2.1.53-4.43c-6.87-7.92 7.52-11.52 7.52-11.52-9.17 5.27-7.48 6.85-5.27 9.95zm-9.09-5.19c2.88-4.32 10.85-6.41 9.09-13.35 0 0 4.37 4.37-4.14 11.08-6.83 5.39-1.56 8.47 0 12-3.99-3.62-6.91-6.78-4.95-9.73zM11 28.84a14.39 14.39 0 0 1 6.61-1.57s-7.64 1.82-2.7 2.48A57.66 57.66 0 0 0 25 29.64c3.16-.27 6.34-.83 6.34-.83a12.72 12.72 0 0 0-1.92 1C21.69 31.87 6.7 30.92 11 28.84zm7 9.05a24 24 0 0 0 8.71-.37A14.43 14.43 0 0 0 29 38.65c-8.23 3.53-18.62-.2-12.16-2 .02-.01-1.59.93 1.16 1.24zM15.85 32s-1.8 1.34 1 1.62a33.77 33.77 0 0 0 11.15-.5 5.17 5.17 0 0 0 1.73 1.06c-9.92 2.9-21 .22-13.88-2.18zm-2.24 7.89a5.6 5.6 0 0 0-1.45.16c-.88.19-3.7 1.1-2.2 1.75 4.17 1.82 19.19 1.38 23.94-.06 2.5-.75 1.31-1.73 1.31-1.73C39.56 42 25.76 46 9 43.24c-6.17-1 2.94-4.48 4.61-3.31zm4.8 6.11c-5-.32-5.95-1.12-5.95-1.12a62.13 62.13 0 0 0 19.16-.3c5.73-1.07 6.25-2.43 6.25-2.43C37.6 45.77 26 46.52 18.41 46z"/></symbol><symbol viewBox="0 0 48 53" id="javascript_filled" xmlns="http://www.w3.org/2000/svg"><path d="M16.89 36.07zm15 .08a3.07 3.07 0 0 1-2.78-1.71l-2.29 1.33A5.4 5.4 0 0 0 32 38.65c2.68 0 4.67-1.39 4.67-3.93 0-2.36-1.35-3.4-3.74-4.43l-.71-.3c-1.2-.53-1.73-.87-1.73-1.71a1.23 1.23 0 0 1 1.35-1.21 1.91 1.91 0 0 1 1.81 1.21l2.2-1.41a4.18 4.18 0 0 0-4-2.26c-2.52 0-4.13 1.61-4.13 3.73 0 2.29 1.35 3.38 3.39 4.25l.7.3c1.29.56 2.05.9 2.05 1.87-.02.81-.76 1.39-1.93 1.39zM48 6.48V43L24 53 0 46.52V10.6L24 0zM39 11H9v30h30zM21.12 38.65c2.49 0 4.21-1.33 4.21-4.25v-9.63h-2.82v9.59c0 1.41-.59 1.77-1.51 1.77s-1.37-.66-1.82-1.45l-2.29 1.39a4.37 4.37 0 0 0 4.23 2.58z"/></symbol><symbol viewBox="0 0 48 53" id="javascript_outline" xmlns="http://www.w3.org/2000/svg"><path d="M24.16 2.12L46 8v33.66l-22.14 9.23L2 45V11.9l22.16-9.78M24 0L0 10.6v35.92L24 53l24-10V6.48L24 0zM9 11v30h30V11zm16.33 23.4c0 2.92-1.72 4.25-4.21 4.25a4.37 4.37 0 0 1-4.23-2.58l2.29-1.39c.45.79.85 1.45 1.82 1.45s1.51-.36 1.51-1.77v-9.59h2.82zM32 38.65a5.4 5.4 0 0 1-5.13-2.88l2.29-1.33a3.07 3.07 0 0 0 2.78 1.71c1.17 0 1.91-.58 1.91-1.39 0-1-.76-1.31-2.05-1.87l-.7-.3c-2-.87-3.39-2-3.39-4.25 0-2.12 1.61-3.73 4.13-3.73a4.18 4.18 0 0 1 4 2.26l-2.2 1.41a1.91 1.91 0 0 0-1.81-1.21 1.23 1.23 0 0 0-1.35 1.21c0 .84.53 1.18 1.73 1.71l.71.3c2.39 1 3.74 2.07 3.74 4.43 0 2.54-1.99 3.93-4.66 3.93z"/></symbol><symbol viewBox="0 0 48 53" id="macos_filled" xmlns="http://www.w3.org/2000/svg"><path d="M36 24.66a4.27 4.27 0 0 1 .26 1.48 4.32 4.32 0 0 1-.26 1.49 3.63 3.63 0 0 1-.73 1.21 3.78 3.78 0 0 1-1.14.82 3.85 3.85 0 0 1-3 0 3.51 3.51 0 0 1-1.87-2 4.32 4.32 0 0 1-.26-1.49 4.27 4.27 0 0 1 .26-1.48 3.59 3.59 0 0 1 .74-1.24 3.46 3.46 0 0 1 1.14-.82 3.74 3.74 0 0 1 3 0 3.51 3.51 0 0 1 1.87 2zM17 27.9a3.4 3.4 0 0 0-.82.18 1.63 1.63 0 0 0-.61.38.84.84 0 0 0-.24.62.9.9 0 0 0 .37.8 1.86 1.86 0 0 0 1 .24 2 2 0 0 0 .86-.16 1.81 1.81 0 0 0 .57-.44 2.07 2.07 0 0 0 .31-.61 2.48 2.48 0 0 0 .09-.65v-.41h-.65a6.83 6.83 0 0 0-.88.05zM48 6.48V43L24 53 0 46.52V10.6L24 0zM12.55 27.2a5.19 5.19 0 0 0-.1-1.05 2.53 2.53 0 0 0-.37-.91 1.89 1.89 0 0 0-.75-.64 2.57 2.57 0 0 0-1.22-.25 2.44 2.44 0 0 0-1.15.3 2.07 2.07 0 0 0-.88.9 2.21 2.21 0 0 0-.8-.9 2.29 2.29 0 0 0-1.21-.3 2.47 2.47 0 0 0-.79.13 2.76 2.76 0 0 0-.62.31 2.44 2.44 0 0 0-.44.39 1.12 1.12 0 0 0-.21.34H4v-1H2.85v6.42h1.22V27.6a3 3 0 0 1 .13-.94 1.94 1.94 0 0 1 .37-.66 1.39 1.39 0 0 1 .54-.39 1.51 1.51 0 0 1 .63-.13 1.36 1.36 0 0 1 .71.16 1 1 0 0 1 .4.43 1.83 1.83 0 0 1 .19.66 7 7 0 0 1 0 .84v3.36h1.27v-3.5A2.41 2.41 0 0 1 8.69 26a1.42 1.42 0 0 1 1.31-.51 1.37 1.37 0 0 1 .72.16 1.1 1.1 0 0 1 .42.41 1.57 1.57 0 0 1 .19.6 4 4 0 0 1 .05.7v3.58h1.22zm7.15 3.74v-4.45a2 2 0 0 0-.16-.8A1.8 1.8 0 0 0 19 25a2.29 2.29 0 0 0-.83-.47 3.63 3.63 0 0 0-1.17-.18 4.06 4.06 0 0 0-1.36.24 3.49 3.49 0 0 0-1.19.71l.73.76.34-.26a1.9 1.9 0 0 1 .39-.23 2.48 2.48 0 0 1 .48-.17 2.35 2.35 0 0 1 .62-.07 2 2 0 0 1 .68.11 1.23 1.23 0 0 1 .47.32 1.3 1.3 0 0 1 .29.44 1.36 1.36 0 0 1 .09.48V27h-.89a7.54 7.54 0 0 0-1.38.12 3.6 3.6 0 0 0-1.12.38 2.09 2.09 0 0 0-.76.68 2.06 2.06 0 0 0-.1 1.88 1.77 1.77 0 0 0 .48.6 1.93 1.93 0 0 0 .71.37 3 3 0 0 0 .85.12 3.06 3.06 0 0 0 1.29-.26 2.29 2.29 0 0 0 1-.88v1zm2.71-3.16a3.09 3.09 0 0 1 .13-.86 2.53 2.53 0 0 1 .38-.73 1.82 1.82 0 0 1 .63-.5 2 2 0 0 1 .87-.19 2 2 0 0 1 .89.19 2.63 2.63 0 0 1 .71.53l.92-.84a2.94 2.94 0 0 0-1.12-.76 3.63 3.63 0 0 0-1.35-.25 3.56 3.56 0 0 0-1.37.25 3.19 3.19 0 0 0-1.06.69 3.15 3.15 0 0 0-.68 1.08 3.74 3.74 0 0 0-.25 1.36 3.79 3.79 0 0 0 .25 1.37 2.91 2.91 0 0 0 .69 1.05 3.19 3.19 0 0 0 1.06.69 3.74 3.74 0 0 0 1.36.24 4 4 0 0 0 1.34-.23 2.67 2.67 0 0 0 1.1-.76l-.86-.87a2.25 2.25 0 0 1-.68.54 2.09 2.09 0 0 1-2.37-.45 2.25 2.25 0 0 1-.42-.7 2.41 2.41 0 0 1-.17-.85zm15.26-1.64a5.22 5.22 0 0 0-.37-2 4.94 4.94 0 0 0-1-1.6 4.68 4.68 0 0 0-1.58-1.06 5.43 5.43 0 0 0-4 0 4.68 4.68 0 0 0-1.58 1.06 5.12 5.12 0 0 0-1 1.6 5.54 5.54 0 0 0 0 4 5 5 0 0 0 1 1.6 4.85 4.85 0 0 0 1.58 1.07 5.56 5.56 0 0 0 4 0 4.75 4.75 0 0 0 2.61-2.67 5.18 5.18 0 0 0 .34-2zm7.48 2.07a2.36 2.36 0 0 0-.35-1.36 2.63 2.63 0 0 0-.88-.78 4.54 4.54 0 0 0-1.13-.46q-.61-.16-1.14-.36a2.83 2.83 0 0 1-.88-.53 1.24 1.24 0 0 1-.35-.94 1.44 1.44 0 0 1 .09-.47 1.37 1.37 0 0 1 .3-.48 1.75 1.75 0 0 1 .58-.37 2.58 2.58 0 0 1 .9-.14 2.25 2.25 0 0 1 1 .23 1.72 1.72 0 0 1 .69.61l1.06-1a2.65 2.65 0 0 0-1.26-.88 5 5 0 0 0-1.51-.22 3.66 3.66 0 0 0-1.48.27 3.09 3.09 0 0 0-1 .65 2.46 2.46 0 0 0-.58.87 2.52 2.52 0 0 0-.18.89 2.78 2.78 0 0 0 .35 1.49 2.92 2.92 0 0 0 .88.87 4.29 4.29 0 0 0 1.13.51c.42.12.79.25 1.14.38a3 3 0 0 1 .88.49 1 1 0 0 1 .35.84 1.27 1.27 0 0 1-.18.69 1.84 1.84 0 0 1-.45.51 2.27 2.27 0 0 1-1.28.4 2.62 2.62 0 0 1-1.13-.25 2.12 2.12 0 0 1-.9-.78l-1.07.92a2.82 2.82 0 0 0 1.31 1 4.85 4.85 0 0 0 1.75.32 4.26 4.26 0 0 0 1.3-.2 3.39 3.39 0 0 0 1.06-.58 3 3 0 0 0 .71-.94 2.94 2.94 0 0 0 .27-1.2z"/></symbol><symbol viewBox="0 0 48 53" id="macos_outline" xmlns="http://www.w3.org/2000/svg"><path d="M24.16 2.12L46 8v33.66l-22.14 9.23L2 45V11.9l22.16-9.78M24 0L0 10.6v35.92L24 53l24-10V6.48L24 0zM12.55 27.2a5.19 5.19 0 0 0-.1-1.05 2.53 2.53 0 0 0-.37-.91 1.89 1.89 0 0 0-.75-.64 2.57 2.57 0 0 0-1.22-.25 2.44 2.44 0 0 0-1.15.3 2.07 2.07 0 0 0-.88.9 2.21 2.21 0 0 0-.8-.9 2.29 2.29 0 0 0-1.21-.3 2.47 2.47 0 0 0-.79.13 2.76 2.76 0 0 0-.62.31 2.44 2.44 0 0 0-.44.39 1.12 1.12 0 0 0-.21.34H4v-1H2.85v6.42h1.22V27.6a3 3 0 0 1 .13-.94 1.94 1.94 0 0 1 .37-.66 1.39 1.39 0 0 1 .54-.39 1.51 1.51 0 0 1 .63-.13 1.36 1.36 0 0 1 .71.16 1 1 0 0 1 .4.43 1.83 1.83 0 0 1 .19.66 7 7 0 0 1 0 .84v3.36h1.27v-3.5A2.41 2.41 0 0 1 8.69 26a1.42 1.42 0 0 1 1.31-.51 1.37 1.37 0 0 1 .72.16 1.1 1.1 0 0 1 .42.41 1.57 1.57 0 0 1 .19.6 4 4 0 0 1 .05.7v3.58h1.22zm9.86.58a3.09 3.09 0 0 1 .13-.86 2.53 2.53 0 0 1 .38-.73 1.82 1.82 0 0 1 .63-.5 2 2 0 0 1 .87-.19 2 2 0 0 1 .89.19 2.63 2.63 0 0 1 .71.53l.92-.84a2.94 2.94 0 0 0-1.12-.76 3.63 3.63 0 0 0-1.35-.25 3.56 3.56 0 0 0-1.37.25 3.19 3.19 0 0 0-1.06.69 3.15 3.15 0 0 0-.68 1.08 3.74 3.74 0 0 0-.25 1.36 3.79 3.79 0 0 0 .25 1.37 2.91 2.91 0 0 0 .69 1.05 3.19 3.19 0 0 0 1.06.69 3.74 3.74 0 0 0 1.36.24 4 4 0 0 0 1.34-.23 2.67 2.67 0 0 0 1.1-.76l-.86-.87a2.25 2.25 0 0 1-.68.54 2.09 2.09 0 0 1-2.37-.45 2.25 2.25 0 0 1-.42-.7 2.41 2.41 0 0 1-.17-.85zm22.74.43a2.36 2.36 0 0 0-.35-1.36 2.63 2.63 0 0 0-.88-.78 4.54 4.54 0 0 0-1.13-.46q-.61-.16-1.14-.36a2.83 2.83 0 0 1-.88-.53 1.24 1.24 0 0 1-.35-.94 1.44 1.44 0 0 1 .09-.47 1.37 1.37 0 0 1 .3-.48 1.75 1.75 0 0 1 .58-.37 2.58 2.58 0 0 1 .9-.14 2.25 2.25 0 0 1 1 .23 1.72 1.72 0 0 1 .69.61l1.06-1a2.65 2.65 0 0 0-1.26-.88 5 5 0 0 0-1.51-.22 3.66 3.66 0 0 0-1.48.27 3.09 3.09 0 0 0-1 .65 2.46 2.46 0 0 0-.58.87 2.52 2.52 0 0 0-.18.89 2.78 2.78 0 0 0 .35 1.49 2.92 2.92 0 0 0 .88.87 4.29 4.29 0 0 0 1.13.51c.42.12.79.25 1.14.38a3 3 0 0 1 .88.49 1 1 0 0 1 .35.84 1.27 1.27 0 0 1-.18.69 1.84 1.84 0 0 1-.45.51 2.27 2.27 0 0 1-1.28.4 2.62 2.62 0 0 1-1.13-.25 2.12 2.12 0 0 1-.9-.78l-1.07.92a2.82 2.82 0 0 0 1.31 1 4.85 4.85 0 0 0 1.75.32 4.26 4.26 0 0 0 1.3-.2 3.39 3.39 0 0 0 1.06-.58 3 3 0 0 0 .71-.94 2.94 2.94 0 0 0 .27-1.2zm-7.85-4.06a4.94 4.94 0 0 0-1-1.6 4.68 4.68 0 0 0-1.58-1.06 5.43 5.43 0 0 0-4 0 4.68 4.68 0 0 0-1.58 1.06 5.12 5.12 0 0 0-1 1.6 5.54 5.54 0 0 0 0 4 5 5 0 0 0 1 1.6 4.85 4.85 0 0 0 1.58 1.07 5.56 5.56 0 0 0 4 0 4.75 4.75 0 0 0 2.61-2.67 5.54 5.54 0 0 0 0-4zM36 27.63a3.63 3.63 0 0 1-.73 1.21 3.78 3.78 0 0 1-1.14.82 3.85 3.85 0 0 1-3 0 3.51 3.51 0 0 1-1.87-2 4.32 4.32 0 0 1-.26-1.49 4.27 4.27 0 0 1 .26-1.48 3.59 3.59 0 0 1 .74-1.24 3.46 3.46 0 0 1 1.14-.82 3.74 3.74 0 0 1 3 0 3.51 3.51 0 0 1 1.87 2 4.27 4.27 0 0 1 .26 1.48 4.32 4.32 0 0 1-.27 1.52zM19.66 30.4v-3.91a2 2 0 0 0-.16-.8A1.8 1.8 0 0 0 19 25a2.29 2.29 0 0 0-.83-.47 3.63 3.63 0 0 0-1.17-.18 4.06 4.06 0 0 0-1.36.24 3.49 3.49 0 0 0-1.19.71l.73.76.34-.26a1.9 1.9 0 0 1 .39-.23 2.48 2.48 0 0 1 .48-.17 2.35 2.35 0 0 1 .62-.07 2 2 0 0 1 .68.11 1.23 1.23 0 0 1 .47.32 1.3 1.3 0 0 1 .29.44 1.36 1.36 0 0 1 .09.48V27h-.89a7.54 7.54 0 0 0-1.38.12 3.6 3.6 0 0 0-1.12.38 2.09 2.09 0 0 0-.76.68 2.06 2.06 0 0 0-.1 1.88 1.77 1.77 0 0 0 .48.6 1.93 1.93 0 0 0 .71.37 3 3 0 0 0 .85.12 3.06 3.06 0 0 0 1.29-.26 2.29 2.29 0 0 0 1-.88v1h1.08c-.01-.24-.03-.42-.04-.61zm-1.15-2.14a2.48 2.48 0 0 1-.09.65 2.07 2.07 0 0 1-.31.61 1.81 1.81 0 0 1-.57.44 2 2 0 0 1-.86.16 1.86 1.86 0 0 1-1-.24.9.9 0 0 1-.37-.8.84.84 0 0 1 .24-.62 1.63 1.63 0 0 1 .61-.38 3.4 3.4 0 0 1 .84-.18 6.83 6.83 0 0 1 .89 0h.65z"/></symbol><symbol viewBox="0 0 48 53" id="net_filled" xmlns="http://www.w3.org/2000/svg"><path d="M23.82 0l-24 10.6v35.92l24 6.48 24-10V6.48zM5.93 33.66a.93.93 0 0 1-.81.37 1.16 1.16 0 0 1-.82-.37 1.26 1.26 0 0 1 0-1.66 1.16 1.16 0 0 1 .82-.37 1.15 1.15 0 0 1 .81.37 1.08 1.08 0 0 1 0 1.63zm15.17.15H19l-7.57-11.67a2.54 2.54 0 0 1-.44-.89h-.08a11.22 11.22 0 0 1 .08 2v10.56H9.28V19.17h2.23l7.36 11.44a9.94 9.94 0 0 1 .59 1h.08a14.46 14.46 0 0 1-.08-2.15V19.17h1.71zm11.52 0h-7.73V19.17h7.44v1.56H26.6v4.83h5.28v1.56H26.6v5.13h6zM44 20.73h-4.24v13h-1.71v-13h-4.16v-1.56H44z"/></symbol><symbol viewBox="0 0 48 53" id="net_outline" xmlns="http://www.w3.org/2000/svg"><path d="M24 2.12L45.82 8v33.66l-22.14 9.23L1.82 45V11.9L24 2.12M23.82 0l-24 10.6v35.92l24 6.48 24-10V6.48L23.82 0zM5.93 33.66a.93.93 0 0 1-.81.37 1.16 1.16 0 0 1-.82-.37 1.26 1.26 0 0 1 0-1.66 1.16 1.16 0 0 1 .82-.37 1.15 1.15 0 0 1 .81.37 1.08 1.08 0 0 1 0 1.63zm15.17.15H19l-7.57-11.67a2.54 2.54 0 0 1-.44-.89h-.08a11.22 11.22 0 0 1 .08 2v10.56H9.28V19.17h2.23l7.36 11.44a9.94 9.94 0 0 1 .59 1h.08a14.46 14.46 0 0 1-.08-2.15V19.17h1.71zm11.52 0h-7.73V19.17h7.44v1.56H26.6v4.83h5.28v1.56H26.6v5.13h6zM44 20.73h-4.24v13h-1.71v-13h-4.16v-1.56H44z"/></symbol><symbol viewBox="0 0 48 53" id="pro-sdk_filled" xmlns="http://www.w3.org/2000/svg"><path d="M28 36.71a2.76 2.76 0 0 0 .29.3h2.07l.26-.73h6v-9.54H21.2v9.54h6.48zm-3.67-1.83l-1.19-1 3.4-4.11 3.13 2.9 3.76-3H32.2v-1.46h3.67v3.67H34.4v-1l-4.8 3.84L26.7 32zm7.67 3.6h6.8v1.46H19v-1.46h7.64a2.29 2.29 0 0 0 1.53.73h2.2a2.22 2.22 0 0 0 1.63-.73zM24 0L0 10.6v35.92L24 53l24-10V6.48zM9.79 31.1A1.79 1.79 0 0 1 8 29.32V11.71a1.79 1.79 0 0 1 1.79-1.79h25a1.79 1.79 0 0 1 1.79 1.79v12.1H34.4V12.08H10.2v16.86h8.07v2.16h-.74v3.71h-4.4v-2.2h2.2V31.1zm4.79-12.83a3 3 0 0 1 .1.71 2 2 0 0 1-.26 1l-.17.33.35-.12a1.85 1.85 0 0 1 .87-.1 1.5 1.5 0 0 1 1.23 1.58 2.25 2.25 0 0 1-.86 1.61 3 3 0 0 0-.37.43l-.08.16h.17l.28.07c.59.13 1.68.39 1.68 1.51a1.08 1.08 0 0 0 .05.2 1.53 1.53 0 0 1 0 .94 2.32 2.32 0 0 1-.42.67l-.15.2v.14l-1.5.34a1.54 1.54 0 0 1-.06-.38 2 2 0 0 1 .56-1.23l.1-.12v-.11a1.89 1.89 0 0 1-.1-.41v-.09h-.09l-.36-.09a1.85 1.85 0 0 1-1.4-.81 2 2 0 0 1 .63-2.5l.18-.19-.15-.24a2.19 2.19 0 0 1-.67.11 1.42 1.42 0 0 1-1.47-1.35 2.33 2.33 0 0 1 .33-1.16.88.88 0 0 0 .15-.39 1.48 1.48 0 0 0-.05-.32A2.45 2.45 0 0 1 13 18a1.76 1.76 0 0 1 1.71-1.8 1.9 1.9 0 0 1 1.65 1.24c0 .12.24.12.33.12s.5-.5.5-.79a1.51 1.51 0 0 1 1.47-1.55 1.74 1.74 0 0 1 1.12.44l.22.16.08-.12c.06-.08.13-.21.19-.31a2.68 2.68 0 0 1 1-1.15c.21-.11.39-.28.26-1.07l1.51-.29a2.34 2.34 0 0 1-1 2.72 1.34 1.34 0 0 0-.42.55A1.85 1.85 0 0 1 20 17.28a1.76 1.76 0 0 1-1-.37l-.19-.15V17a2.28 2.28 0 0 1-2 2.05 1.74 1.74 0 0 1-1.81-.89l-.21-.35-.17-.25-.1.31V18a1.1 1.1 0 0 0 .06.27zm6.87 3.54c.05 0 .1-.1.15-.15v-.81a1.42 1.42 0 0 1 1.48-1.29 2 2 0 0 1 .75.17h.11l.14-.06.12-.17a1.77 1.77 0 0 1 1.44-.93 1.46 1.46 0 0 1 1.32 1 1.1 1.1 0 0 0 .18.28 1.53 1.53 0 0 0 .88.44l.18-.07a2 2 0 0 1 .81-.26l.41-.13h.11c.26-.08.53-.18.76-.24a3 3 0 0 1 .73-.08h.73c.14 0 .24-.06.48-.21l.29-.18.7 1.38-.13.08a2.4 2.4 0 0 1-1.34.47H31a1 1 0 0 0-.28 0c-.2.05-.45.13-.67.21a3.77 3.77 0 0 1-.9.24l-.16.07a1.9 1.9 0 0 1-.89.27 3 3 0 0 1-2-.82 2.1 2.1 0 0 1-.43-.55l-.11-.2-.13.19a1.72 1.72 0 0 1-1.41.88 2 2 0 0 1-.7-.14l-.2-.08v.54a1.67 1.67 0 0 1-.57 1.23v-.15l-1.5 1.13a1.21 1.21 0 0 1-.25-.72 1.78 1.78 0 0 1 .65-1.34zM41 40a2.13 2.13 0 0 1-2.13 2.13H18.93A2.13 2.13 0 0 1 16.8 40v-3.72H19v-10a1.79 1.79 0 0 1 1.79-1.79H37a1.79 1.79 0 0 1 1.79 1.79v10H41z"/></symbol><symbol viewBox="0 0 48 53" id="pro-sdk_outline" xmlns="http://www.w3.org/2000/svg"><path d="M24.16 2.12L46 8v33.66l-22.14 9.23L2 45V11.9l22.16-9.78M24 0L0 10.6v35.92L24 53l24-10V6.48L24 0zm14.8 36.28v-10a1.79 1.79 0 0 0-1.8-1.74H20.79A1.79 1.79 0 0 0 19 26.33v10h-2.2V40a2.13 2.13 0 0 0 2.13 2.13h19.94A2.13 2.13 0 0 0 41 40v-3.72zm-17.6-9.54h15.4v9.54h-6l-.26.73H28.3a2.76 2.76 0 0 1-.29-.3l-.33-.43H21.2zm17.6 13.2H19v-1.46h7.64a2.29 2.29 0 0 0 1.53.73h2.2a2.22 2.22 0 0 0 1.63-.73h6.8zm-9.2-5.22L26.7 32l-2.36 2.85-1.19-1 3.4-4.11 3.13 2.9 3.76-3H32.2v-1.43h3.67v3.67H34.4v-1zM9.79 31.1A1.79 1.79 0 0 1 8 29.32V11.71a1.79 1.79 0 0 1 1.79-1.79h25a1.79 1.79 0 0 1 1.79 1.79v12.1H34.4V12.08H10.2v16.86h8.07v2.16h-.74v3.71h-4.4v-2.2h2.2V31.1zm4.79-12.83a3 3 0 0 1 .1.71 2 2 0 0 1-.26 1l-.17.33.35-.12a1.85 1.85 0 0 1 .87-.1 1.5 1.5 0 0 1 1.23 1.58 2.25 2.25 0 0 1-.86 1.61 3 3 0 0 0-.37.43l-.08.16h.17l.28.07c.59.13 1.68.39 1.68 1.51a1.08 1.08 0 0 0 .05.2 1.53 1.53 0 0 1 0 .94 2.32 2.32 0 0 1-.42.67l-.15.2v.14l-1.5.34a1.54 1.54 0 0 1-.06-.38 2 2 0 0 1 .56-1.23l.1-.12v-.11a1.89 1.89 0 0 1-.1-.41v-.09h-.09l-.36-.09a1.85 1.85 0 0 1-1.4-.81 2 2 0 0 1 .63-2.5l.18-.19-.15-.24a2.19 2.19 0 0 1-.67.11 1.42 1.42 0 0 1-1.47-1.35 2.33 2.33 0 0 1 .33-1.16.88.88 0 0 0 .15-.39 1.48 1.48 0 0 0-.05-.32A2.45 2.45 0 0 1 13 18a1.76 1.76 0 0 1 1.71-1.8 1.9 1.9 0 0 1 1.65 1.24c0 .12.24.12.33.12s.5-.5.5-.79a1.51 1.51 0 0 1 1.47-1.55 1.74 1.74 0 0 1 1.12.44l.22.16.08-.12c.06-.08.13-.21.19-.31a2.68 2.68 0 0 1 1-1.15c.21-.11.39-.28.26-1.07l1.51-.29a2.34 2.34 0 0 1-1 2.72 1.34 1.34 0 0 0-.42.55A1.85 1.85 0 0 1 20 17.28a1.76 1.76 0 0 1-1-.37l-.19-.15V17a2.28 2.28 0 0 1-2 2.05 1.74 1.74 0 0 1-1.81-.89l-.21-.35-.17-.25-.1.31V18a1.1 1.1 0 0 0 .06.27zm6.87 3.54c.05 0 .1-.1.15-.15v-.81a1.42 1.42 0 0 1 1.48-1.29 2 2 0 0 1 .75.17h.11l.14-.06.12-.17a1.77 1.77 0 0 1 1.44-.93 1.46 1.46 0 0 1 1.32 1 1.1 1.1 0 0 0 .18.28 1.53 1.53 0 0 0 .88.44l.18-.07a2 2 0 0 1 .81-.26l.41-.13h.11c.26-.08.53-.18.76-.24a3 3 0 0 1 .73-.08h.73c.14 0 .24-.06.48-.21l.29-.18.7 1.38-.13.08a2.4 2.4 0 0 1-1.34.47H31a1 1 0 0 0-.28 0c-.2.05-.45.13-.67.21a3.77 3.77 0 0 1-.9.24l-.16.07a1.9 1.9 0 0 1-.89.27 3 3 0 0 1-2-.82 2.1 2.1 0 0 1-.43-.55l-.11-.2-.13.19a1.72 1.72 0 0 1-1.41.88 2 2 0 0 1-.7-.14l-.2-.08v.54a1.67 1.67 0 0 1-.57 1.23v-.15l-1.5 1.13a1.21 1.21 0 0 1-.25-.72 1.78 1.78 0 0 1 .65-1.34z"/></symbol><symbol viewBox="0 0 48 53" id="python_filled" xmlns="http://www.w3.org/2000/svg"><path d="M21 13.19a1.53 1.53 0 1 1-1.53-1.56A1.54 1.54 0 0 1 21 13.19zm7.6 27.37A1.56 1.56 0 1 0 27.07 39a1.55 1.55 0 0 0 1.53 1.56zM48 6.48V43L24 53 0 46.52V10.6L24 0zM14.85 30.64A5.18 5.18 0 0 1 20 25.58h8.14a4.1 4.1 0 0 0 4.07-4.13V13.7a4.55 4.55 0 0 0-4.07-4.23 25.44 25.44 0 0 0-4.25-.33 24.44 24.44 0 0 0-3.89.33c-3.45.61-4.08 1.88-4.08 4.23v3.1H24v1H12.81A5.08 5.08 0 0 0 7.72 22a15.18 15.18 0 0 0 0 8.27c.58 2.41 2 4.12 4.33 4.12h2.8zM40.31 22c-.58-2.35-1.7-4.12-4.07-4.12h-3.06v3.61a5.23 5.23 0 0 1-5.09 5.16H20a4.15 4.15 0 0 0-4.08 4.13v7.75c0 2.2 1.92 3.5 4.08 4.13a13.59 13.59 0 0 0 8.14 0c2.05-.59 4.07-1.78 4.07-4.13v-3.1H24v-1h12.24c2.37 0 3.25-1.65 4.07-4.12a13.91 13.91 0 0 0 0-8.31z"/></symbol><symbol viewBox="0 0 48 53" id="python_outline" xmlns="http://www.w3.org/2000/svg"><path d="M24.16 2.12L46 8v33.66l-22.14 9.23L2 45V11.9l22.16-9.78M24 0L0 10.6v35.92L24 53l24-10V6.48L24 0zm-4 25.58h8.14a4.1 4.1 0 0 0 4.07-4.13V13.7a4.55 4.55 0 0 0-4.07-4.23 25.44 25.44 0 0 0-4.25-.33 24.44 24.44 0 0 0-3.89.33c-3.45.61-4.08 1.88-4.08 4.23v3.1H24v1H12.81A5.08 5.08 0 0 0 7.72 22a15.18 15.18 0 0 0 0 8.27c.58 2.41 2 4.12 4.33 4.12h2.8v-3.75A5.18 5.18 0 0 1 20 25.58zm-.52-10.84A1.56 1.56 0 1 1 21 13.19a1.55 1.55 0 0 1-1.57 1.55zM40.31 22c-.58-2.35-1.7-4.12-4.07-4.12h-3.06v3.61a5.23 5.23 0 0 1-5.09 5.16H20a4.15 4.15 0 0 0-4.08 4.13v7.75c0 2.2 1.92 3.5 4.08 4.13a13.59 13.59 0 0 0 8.14 0c2.05-.59 4.07-1.78 4.07-4.13v-3.1H24v-1h12.24c2.37 0 3.25-1.65 4.07-4.12a13.91 13.91 0 0 0 0-8.31zM28.6 37.45A1.56 1.56 0 1 1 27.07 39a1.55 1.55 0 0 1 1.53-1.55z"/></symbol><symbol viewBox="0 0 48 53" id="qt_filled" xmlns="http://www.w3.org/2000/svg"><path d="M24 0L0 10.6v35.92L24 53l24-10V6.48zm17.72 34.08L36.78 39H6.28V17.86L11.15 13h30.57zM28.84 23.74h-1.7v-2.09h1.7v-3.23h2.44v3.23h3.12l-.06 2.09h-3.11v5.29a3.71 3.71 0 0 0 .22 1.44 1 1 0 0 0 .92.44c.64 0 1.28 0 1.92-.05 0 .64.07 1.28.11 1.92a8.21 8.21 0 0 1-3.88.07 1.86 1.86 0 0 1-1.24-1 7.52 7.52 0 0 1-.44-2.85zm-13.73 8.35a5.53 5.53 0 0 0 3 1.19 9.91 9.91 0 0 0 2.72 0l2 3.28 2.33-1.08c-.62-1-1.25-2-1.86-3a5.14 5.14 0 0 0 1.85-2.5 14 14 0 0 0 .58-4.59 13.16 13.16 0 0 0-.73-4.57 4.87 4.87 0 0 0-1.63-2.28 6.56 6.56 0 0 0-3.74-1 7 7 0 0 0-4 .95 5.11 5.11 0 0 0-1.93 2.83 14.57 14.57 0 0 0-.54 4.51 13.64 13.64 0 0 0 .63 4.17 5 5 0 0 0 1.32 2.09zm1-9.42a4.12 4.12 0 0 1 .92-1.9 2.8 2.8 0 0 1 1.65-.77 4.73 4.73 0 0 1 2.33.22 2.56 2.56 0 0 1 1.37 1.28 8.28 8.28 0 0 1 .62 2.85 18.35 18.35 0 0 1-.1 3.85 4.3 4.3 0 0 1-.82 2.16 3 3 0 0 1-2.1.92 4.54 4.54 0 0 1-2.41-.38 2.32 2.32 0 0 1-1-1 6.07 6.07 0 0 1-.5-1.67 14.49 14.49 0 0 1 .05-5.56z"/></symbol><symbol viewBox="0 0 48 53" id="qt_outline" xmlns="http://www.w3.org/2000/svg"><path d="M24.16 2.12L46 8v33.66l-22.14 9.23L2 45V11.9l22.16-9.78M24 0L0 10.6v35.92L24 53l24-10V6.48L24 0zm-1 24.35a18.35 18.35 0 0 1-.1 3.85 4.3 4.3 0 0 1-.82 2.16 3 3 0 0 1-2.1.92 4.54 4.54 0 0 1-2.41-.38 2.32 2.32 0 0 1-1-1 6.07 6.07 0 0 1-.5-1.67 14.49 14.49 0 0 1 0-5.53 4.12 4.12 0 0 1 .92-1.9 2.8 2.8 0 0 1 1.69-.8 4.73 4.73 0 0 1 2.33.22 2.56 2.56 0 0 1 1.37 1.28 8.28 8.28 0 0 1 .62 2.85zM41.72 13v21.08L36.78 39H6.28V17.86L11.15 13zM23.3 32.44a5.14 5.14 0 0 0 1.85-2.5 14 14 0 0 0 .58-4.59 13.16 13.16 0 0 0-.73-4.53 4.87 4.87 0 0 0-1.63-2.28 6.56 6.56 0 0 0-3.74-1 7 7 0 0 0-4 .95 5.11 5.11 0 0 0-1.93 2.83 14.57 14.57 0 0 0-.54 4.51 13.64 13.64 0 0 0 .63 4.17 5 5 0 0 0 1.32 2.12 5.53 5.53 0 0 0 3 1.19 9.91 9.91 0 0 0 2.72 0l2 3.28 2.33-1.08c-.62-1.07-1.25-2.06-1.86-3.07zm7.93-8.7h3.11l.06-2.09h-3.12v-3.23h-2.44v3.23h-1.7v2.09h1.7V29a7.52 7.52 0 0 0 .44 2.86 1.86 1.86 0 0 0 1.24 1 8.21 8.21 0 0 0 3.88-.07c0-.64-.07-1.28-.11-1.92-.64 0-1.28.05-1.92.05a1 1 0 0 1-.92-.44 3.71 3.71 0 0 1-.22-1.48c-.01-1.73 0-3.49 0-5.26z"/></symbol><symbol viewBox="0 0 48 53" id="rest-api_filled" xmlns="http://www.w3.org/2000/svg"><path d="M9.66 25.06a3 3 0 0 1-.88.3 6.74 6.74 0 0 1-1 .08H5.52v-4.1h2.26a6.74 6.74 0 0 1 1 .08 3 3 0 0 1 .88.3 1.68 1.68 0 0 1 .62.62 2.51 2.51 0 0 1 0 2.1 1.68 1.68 0 0 1-.62.62zM48 6.48V43L24 53 0 46.52V10.6L24 0zM12.83 32.55l-3.61-5.8a3.55 3.55 0 0 0 2.29-1.16 3.58 3.58 0 0 0 .62-1 3.37 3.37 0 0 0 .21-1.18 4.47 4.47 0 0 0-.18-1.23 2.79 2.79 0 0 0-.64-1.18 3.39 3.39 0 0 0-1.24-.84 5.1 5.1 0 0 0-2-.34H3.79v12.73h1.73V27h1.92l3.23 5.6zm10.47-1.62h-6.81v-4.07h6v-1.62h-6v-3.79H23v-1.62h-8.23v12.72h8.53zm9.88-2a3.09 3.09 0 0 0-.47-1.81 3.61 3.61 0 0 0-1.16-1 7 7 0 0 0-1.51-.6 13.23 13.23 0 0 1-1.5-.48 3.66 3.66 0 0 1-1.16-.7 1.61 1.61 0 0 1-.47-1.24 1.89 1.89 0 0 1 .12-.63 1.63 1.63 0 0 1 .4-.64 2.22 2.22 0 0 1 .76-.49 3.45 3.45 0 0 1 1.2-.18 3 3 0 0 1 1.35.3 2.32 2.32 0 0 1 .91.81l1.4-1.27a3.42 3.42 0 0 0-1.67-1.16 6.89 6.89 0 0 0-2-.29 5.07 5.07 0 0 0-2 .35 4.2 4.2 0 0 0-1.34.87 3.39 3.39 0 0 0-1 2.34 3.6 3.6 0 0 0 .46 2 3.78 3.78 0 0 0 1.16 1.16 6.45 6.45 0 0 0 1.51.68c.55.16 1.05.32 1.51.5a3.9 3.9 0 0 1 1.16.65 1.36 1.36 0 0 1 .47 1.12 1.69 1.69 0 0 1-.24.91 2 2 0 0 1-.6.67 2.61 2.61 0 0 1-.82.4 3 3 0 0 1-.88.14 3.63 3.63 0 0 1-1.5-.33 2.9 2.9 0 0 1-1.19-1l-1.38 1.1a3.74 3.74 0 0 0 1.74 1.33 6.25 6.25 0 0 0 2.32.43 5.34 5.34 0 0 0 1.72-.27 4 4 0 0 0 1.41-.77 3.64 3.64 0 0 0 .94-1.24 3.84 3.84 0 0 0 .35-1.65zm11-9.11h-9.89v1.62h4.1v11.1h1.72V21.45h4.1z"/></symbol><symbol viewBox="0 0 48 53" id="rest-api_outline" xmlns="http://www.w3.org/2000/svg"><path d="M24.16 2.12L46 8v33.66l-22.14 9.23L2 45V11.9l22.16-9.78M24 0L0 10.6v35.92L24 53l24-10V6.48L24 0zm-.7 30.93h-6.81v-4.07h6v-1.62h-6v-3.79H23v-1.62h-8.23v12.72h8.53zm9.88-2a3.09 3.09 0 0 0-.47-1.81 3.61 3.61 0 0 0-1.16-1 7 7 0 0 0-1.51-.6 13.23 13.23 0 0 1-1.5-.48 3.66 3.66 0 0 1-1.16-.7 1.61 1.61 0 0 1-.47-1.24 1.89 1.89 0 0 1 .12-.63 1.63 1.63 0 0 1 .4-.64 2.22 2.22 0 0 1 .76-.49 3.45 3.45 0 0 1 1.2-.18 3 3 0 0 1 1.35.3 2.32 2.32 0 0 1 .91.81l1.4-1.27a3.42 3.42 0 0 0-1.67-1.16 6.89 6.89 0 0 0-2-.29 5.07 5.07 0 0 0-2 .35 4.2 4.2 0 0 0-1.34.87 3.39 3.39 0 0 0-1 2.34 3.6 3.6 0 0 0 .46 2 3.78 3.78 0 0 0 1.16 1.16 6.45 6.45 0 0 0 1.51.68c.55.16 1.05.32 1.51.5a3.9 3.9 0 0 1 1.16.65 1.36 1.36 0 0 1 .47 1.12 1.69 1.69 0 0 1-.24.91 2 2 0 0 1-.6.67 2.61 2.61 0 0 1-.82.4 3 3 0 0 1-.88.14 3.63 3.63 0 0 1-1.5-.33 2.9 2.9 0 0 1-1.19-1l-1.38 1.1a3.74 3.74 0 0 0 1.74 1.33 6.25 6.25 0 0 0 2.32.43 5.34 5.34 0 0 0 1.72-.27 4 4 0 0 0 1.41-.77 3.64 3.64 0 0 0 .94-1.24 3.84 3.84 0 0 0 .35-1.65zm11-9.11h-9.89v1.62h4.1v11.1h1.72V21.45h4.1zm-35 6.92a3.55 3.55 0 0 0 2.29-1.16 3.58 3.58 0 0 0 .62-1 3.37 3.37 0 0 0 .21-1.18 4.47 4.47 0 0 0-.18-1.23 2.79 2.79 0 0 0-.6-1.17 3.39 3.39 0 0 0-1.24-.84 5.1 5.1 0 0 0-2-.34H3.79v12.73h1.73V27h1.92l3.23 5.6h2.16zm-1.4-1.3H5.52v-4.1h2.26a6.74 6.74 0 0 1 1 .08 3 3 0 0 1 .88.3 1.68 1.68 0 0 1 .62.62 2.51 2.51 0 0 1 0 2.1 1.68 1.68 0 0 1-.62.62 3 3 0 0 1-.88.3 6.74 6.74 0 0 1-1 .08z"/></symbol><symbol viewBox="0 0 48 53" id="web-app-builder_filled" xmlns="http://www.w3.org/2000/svg"><path d="M24 0L0 10.6v35.92L24 53l24-10V6.48zM8.47 15.54c1.81-7.91 10.34-6.81 10.34-6.81a9.54 9.54 0 0 0-3.41 2.48 5.39 5.39 0 0 0-1.55 3.3v15c0 2.42 4.5 4.18 4.5 4.18a5.14 5.14 0 0 1-4.5 1.69c-3.9-.59-5.41-4.52-5.41-4.52zm9.87 13v-4.97l4.28-2.47 4.28 2.47v4.93L22.62 31zm15.32 7.72l-13.27 7.61c-7.75 2.39-11.06-5.55-11.06-5.55A9.46 9.46 0 0 0 13.18 40a5.35 5.35 0 0 0 3.63-.3l13-7.52c2.1-1.21 1.37-6 1.37-6a5.11 5.11 0 0 1 3.71 3.05c1.41 3.71-1.23 6.99-1.23 6.99zM39.41 31a9.49 9.49 0 0 0-.41-4.22 5.32 5.32 0 0 0-2.07-3l-13-7.46c-2.1-1.21-5.87 1.8-5.87 1.8a5.12 5.12 0 0 1 .79-4.74C21.27 10.3 25.43 11 25.43 11l13.26 7.66c5.94 5.48.72 12.34.72 12.34z"/></symbol><symbol viewBox="0 0 48 53" id="web-app-builder_outline" xmlns="http://www.w3.org/2000/svg"><path d="M24.16 2.12L46 8v33.66l-22.14 9.23L2 45V11.9l22.16-9.78M24 0L0 10.6v35.92L24 53l24-10V6.48L24 0zM8.47 15.54c1.81-7.91 10.34-6.81 10.34-6.81a9.54 9.54 0 0 0-3.41 2.48 5.39 5.39 0 0 0-1.55 3.3v15c0 2.42 4.5 4.18 4.5 4.18a5.14 5.14 0 0 1-4.5 1.69c-3.9-.59-5.41-4.52-5.41-4.52zm9.87 13v-4.97l4.28-2.47 4.28 2.47v4.93L22.62 31zm15.32 7.72l-13.27 7.61c-7.75 2.39-11.06-5.55-11.06-5.55A9.46 9.46 0 0 0 13.18 40a5.35 5.35 0 0 0 3.63-.3l13-7.52c2.1-1.21 1.37-6 1.37-6a5.11 5.11 0 0 1 3.71 3.05c1.41 3.71-1.23 6.99-1.23 6.99zM39.41 31a9.49 9.49 0 0 0-.41-4.22 5.32 5.32 0 0 0-2.07-3l-13-7.46c-2.1-1.21-5.87 1.8-5.87 1.8a5.12 5.12 0 0 1 .79-4.74C21.27 10.3 25.43 11 25.43 11l13.26 7.66c5.94 5.48.72 12.34.72 12.34z"/></symbol></svg>
